<?xml version="1.0" encoding="utf-8" ?>
<svg baseProfile="full" height="300mm" version="1.1" viewBox="0,0,200,300" width="200mm" xmlns="http://www.w3.org/2000/svg" xmlns:ev="http://www.w3.org/2001/xml-events" xmlns:xlink="http://www.w3.org/1999/xlink"><defs /><rect fill="#222222" height="300" width="200" x="0" y="0" /><text fill="#FFFFFF" style="font-size:12px; font-family:Arial; font-weight:bold;" x="10" y="20">Over 10km Runs</text><text fill="#FFFFFF" style="font-size:4px; font-family:Arial" x="10" y="280">Runner</text><text fill="#FFFFFF" style="font-size:9px; font-family:Arial" x="10" y="290">yihong0618</text><text fill="#FFFFFF" style="font-size:4px; font-family:Arial" x="65" y="280">SPECIAL TRACKS</text><rect fill="yellow" height="2.6" width="2.6" x="65" y="283" /><text fill="#FFFFFF" style="font-size:3px; font-family:Arial" x="70" y="285.5">Over 20.0 km</text><rect fill="red" height="2.6" width="2.6" x="65" y="287" /><text fill="#FFFFFF" style="font-size:3px; font-family:Arial" x="70" y="289.5">Over 40.0 km</text><text fill="#FFFFFF" style="font-size:4px; font-family:Arial" x="120" y="280">STATISTICS</text><text fill="#FFFFFF" style="font-size:3px; font-family:Arial" x="120" y="285">Number: 5</text><text fill="#FFFFFF" style="font-size:3px; font-family:Arial" x="120" y="290">Weekly: 1.2</text><text fill="#FFFFFF" style="font-size:3px; font-family:Arial" x="141" y="285">Total: 92.2 km</text><text fill="#FFFFFF" style="font-size:3px; font-family:Arial" x="141" y="290">Avg: 18.4 km</text><text fill="#FFFFFF" style="font-size:3px; font-family:Arial" x="167" y="285">Min: 12.0 km</text><text fill="#FFFFFF" style="font-size:3px; font-family:Arial" x="167" y="290">Max: 27.7 km</text><polyline fill="none" points="44.50686011911603,77.91502487065736 45.68669769464759,77.99145385422162 45.594762299151625,78.4691341011494 44.813311437435914,78.54556279661483 44.706053475965746,79.97859347563644 44.90524683293188,80.57090874131245 45.77863309014356,80.59001564559003 46.222987501649186,80.47537418249703 46.40685829264112,79.61556035862304 46.759277308767196,79.3671687617898 46.97379323159112,77.01698133570608 59.03265260747867,77.09341078634316 60.93265078117838,77.1507328482985 61.19313440169208,77.36091355071403 60.82539281970821,86.15001925714023 60.978618478926364,89.22608207690064 40.047993437503465,93.00897789324517 40.30847705807537,64.40557751397137 39.35847797128372,34.248468313060584 38.806865598249715,34.0 39.05202665296383,49.595350111310836 39.64960672368761,64.17626924304932 39.32783283939352,105.82806749865995 41.304443842615,106.0 41.8407336496748,105.78986024885671 41.56492746324511,103.22995188797358 40.155251398915425,98.32015215033607 40.06331600347767,93.79229263667366 47.004438363423105,92.35939664691978 46.713309610961005,91.04111999824818 46.789922440599184,84.20117595567717 47.218954286247026,84.01011149589613 55.1560434307321,83.97189857412013 55.87620402878383,81.44982376811095 56.38184870406985,77.26537690505211 60.84071538562421,77.1507328482985 61.009263610700145,76.67304831565707 57.99071812519105,76.67304831565707 58.17458891624119,76.15714727633167 59.139910568948835,76.2908995715552 59.07862030528486,76.65394090209156 57.22458982944954,76.74947794523905 46.60605164960725,76.48197406785039 46.36089059495134,77.09341078634316 43.832667218812276,77.1125181428215 43.80202208692208,77.3800208723842 45.67137512867339,77.39912819155143 45.70202026050538,77.64752311496704 44.15444110298995,77.3800208723842 43.69476412556833,77.53287935638218 44.39960215770407,77.95323936738714" stroke="#4DD2FF" stroke-linecap="round" stroke-linejoin="round" stroke-width="0.5"><title>2026-05-27 15.5km</title><desc>1779887259000</desc></polyline><polyline fill="none" points="176.59095203108154,38.664058702561306 177.28623910990427,40.1822583272733 177.24089430039749,41.622570560124586 177.55830796682858,43.71486226280831 177.54319303034572,45.76816568529466 177.9059515062545,46.10875510870392 178.07221580771147,45.8460148451486 178.55589377557044,45.5832735772492 179.0773590846802,45.55408004105266 179.34942794166273,45.68058527505491 178.95643959273002,45.87520825736283 178.4954340295808,46.342301166536345 178.82796263252385,50.05946909754857 178.6087960533041,50.16650498733361 178.57856618033838,50.88656027770776 178.17046289492282,52.82288776856876 180.76267450401792,52.86180836499261 181.19345019417233,53.58183542486222 181.1632203211775,53.91265614017175 181.38994436862413,54.2045554493161 181.911409677763,55.87808756657614 182.4253175186459,58.80667075351812 182.43287498687278,60.849794455454685 182.6520415660343,61.63784023050539 182.55379447885207,63.924094764377514 182.17592106643133,65.56820529264951 182.584024351876,65.94760983232118 183.98215597777744,66.68695625443797 184.21643749345094,67.00798577840033 186.0,67.7570488396741 184.27689723941148,67.03717020627664 183.65718484309036,66.42429462010477 182.3875301773951,65.83087019689992 182.1910360029433,65.53902024135459 182.21370840768213,65.0039587725114 182.56135194707895,64.03110907170776 182.66715650257538,61.579466779134236 182.43287498687278,60.7330461651145 182.43287498687278,58.61208437739697 181.92652461424586,55.88781728534377 181.42773170984583,54.24347526358906 181.2010076624574,53.89319614215492 181.11787551172893,53.27047329740162 180.770231972303,52.832617919761105 178.48031909309793,52.86180836499261 178.20069276791764,52.832617919761105 178.1780203631788,52.706125847034855 178.16290542669594,52.81315761603037 178.6163535215892,50.18596604026243 178.79773275949992,50.127582864879514 178.8506350372627,49.903780233085854 178.5710087120824,46.332570096623385 179.06980161648244,45.807090276248346 179.37965781459934,45.729241072316654 179.22095098142745,45.495692931443045 178.73727301353938,45.47623055056465 178.91865225150832,45.447036968886096 178.86574997374555,44.87289400961163 179.28896819564397,44.717193397387746 179.273853259132,44.30847761230689 178.59368111685035,42.50815296181827 177.95885378395906,42.09942404045432 177.45250341136125,41.53498486735771 177.87572163323057,41.525253116829845 177.65655505403993,40.7661723298952 176.77233126899227,38.80030875668308 175.6991707777779,37.48645769268478 175.83520520626917,37.466993043679395 174.48997585807228,37.43779605979944 171.1420174241357,36.717599864256044 169.38868479058146,36.990107420460845 167.65802456173697,36.90251582379278 166.7435709037527,36.474288633115066 165.1262726986606,35.14092779088969 163.25957804135396,34.751620475697564 161.74052692347323,34.92680904047302 160.90920541621745,35.40370898186666 160.67492390048574,35.63729141913791 160.138343654864,36.873318600111816 159.92673454390024,36.94144543609582 159.55641859976458,36.72733229560254 159.11052797312732,35.99739612114354 158.4530282355263,35.5594306949497 157.17581610160414,35.10199715861381 156.14044295161148,34.975472451413225 155.71722472974216,34.71268962286558 154.19061614357634,37.99253663226409 154.084811588109,38.79057661892875 154.1679437388375,39.65673148327187 153.87320247714524,40.775904187888955 153.68426577097853,40.80509975369205 152.81515692244284,40.08493884451309 151.52282985197962,39.569143285247264 151.30366327278898,40.425556431255245 150.85777264615172,40.79536789980193 150.827542773186,41.3890084647137 150.5101291067549,42.42056839754514 150.56303138448857,44.57122375314793 149.67125013118493,45.622198272903915 149.46719848850626,47.188898974403855 149.16489975858713,47.28620839915675 147.81211294219247,46.62450159438595 147.10171092685778,46.77046687832626 146.6180329589697,47.694906478711346 146.25527448306093,49.36859707217809 146.43665372100077,50.234618648588366 146.36863650678424,50.828177697287174 145.6809068961884,51.752562731264334 145.2803610790288,51.51903505399969 144.71355096044135,50.33192376187799 144.01070641333354,50.11785233080445 143.9124593261513,49.349135787866544 143.0433504775865,47.79221518713166 142.71837934292853,45.37891856345232 142.1440117560851,44.99940049731231 141.7888107483741,44.30847761230689 141.5545292327006,44.42525379890867 141.41849480423843,45.63192944337061 140.73076519364258,47.247284645760374 139.95234596414957,48.463641520742385 139.7407368531567,49.59240144635987 139.31751863125828,49.787013353343355 138.9925474966003,49.58267083654937 138.2897029494925,48.59014140012732 137.4281515692419,48.04521718433534 136.94447360135382,47.237553703984304 136.23407158601913,46.95535579302668 135.99979007034563,46.65369467596611 135.93933032435598,46.050368470278045 135.00220426160377,45.23295032445458 134.6318883174099,44.51283580864401 134.36737692874158,44.46417915035272 134.06507819882245,44.63934295904619 133.95171617507003,44.970206713122025 133.95171617507003,46.03090624642937 134.42027920644614,47.07212748290476 134.69234806342865,48.667987364045985 135.1004513488151,49.36859707217809 135.23648577727727,50.614107811576105 135.76550855464302,51.22712434185814 136.15093943529064,52.20015522866743 136.2794163955259,52.63801463454729 136.15849690357572,53.50399502518849 137.3450194184843,55.449978577016736 137.91938700535684,57.59049686766957 137.52639865645324,58.505061635813036 137.44326650572475,59.526635556918336 137.19387005353929,60.120114388439106 136.85378398236935,60.26605102133908 136.14338196703466,59.65311508169543 135.90910045133205,59.944990020099794 135.93933032435598,60.30496740446688 136.61194499846897,61.88106241123023 136.46079563346575,62.250758478177886 135.76550855464302,63.0582456071279 135.8864280465932,63.68087981008284 135.54634197545238,65.14015663228201 134.50341135720373,66.82315078096144 134.1179804765561,67.12472341557441 133.44536580250133,67.28037329017388 133.74010706413537,67.47493513802328 134.97197438857984,66.97880133815488 134.54119869845454,68.5936550811166 134.21622756379656,69.3718843082388 133.97438857983798,69.6248069109206 131.50309646272217,71.09368517731491 130.16542458278127,72.51389526009007 130.49039571746835,72.84462490501755 131.02697596306098,72.07616240221978 130.85315419334802,72.13452694424632 130.860711661604,72.26098328205262 130.5055106539221,72.15398178056057 130.2258843287418,72.37771200283169 128.895769917086,74.56633883759059 128.29872992547462,76.16156073894672 128.0266610685503,77.37740624506841 128.04933347328915,80.09109589991567 127.89062664008816,80.88864741414 128.07956334628398,84.4288864166665 126.930828172568,86.694932785751 124.93565655505517,89.36935500487016 124.15723732553306,91.25597578067391 122.90269759632065,93.6287655795677 121.6254854623694,95.50554545722844 120.77149155034567,96.28347029678844 119.50939435290638,98.97696711412573 118.3228718379687,100.13406875287183 116.50907945839572,101.48561662114662 114.33252860294306,102.73018398939894 114.4307756901544,102.47738306422252 114.0,101.84537668864505 114.64238480108907,102.65239918827137 114.76330429309746,103.2163370047856 115.36790175293572,104.17890984425321 115.5341660543927,104.69422108420986 115.2998845386901,104.68449826632423 115.12606276897714,104.8692315710432 115.34522934819688,105.02479607462737 117.13634932300192,104.59699284366798 117.4991077989107,105.28731037712714 121.4289912879467,104.39281309147191 122.32077254122123,104.59699284366798" stroke="yellow" stroke-linecap="round" stroke-linejoin="round" stroke-width="0.5"><title>2026-05-23 27.7km</title><desc>1779484688000</desc></polyline><polyline fill="none" points="84.93855670106132,148.00146947042958 85.51010309281992,148.07551812536258 85.48041237113648,148.23287126138894 85.05731958764954,148.33468781113334 85.05731958764954,149.02888767806144 85.15381443302613,149.2602861293417 85.57690721654217,149.28805389296758 85.7327835051401,149.20475056964642 85.98515463917283,148.56608851894998 86.0,147.47387057433662 85.72536082478473,147.31651576059085 67.51010309279081,147.3257719357207 66.79010309281875,147.23321013013629 57.526597938121995,147.20544156496908 56.68041237114812,145.2245893041836 56.53195876287646,140.17038938528276 56.36865979380673,140.1981606950867 56.3389690721815,140.04078979617043 56.14597938148654,139.9852470429105 54.030515463935444,140.0963325061166 50.17072164948331,139.6427324398246 49.39876288661617,139.62421808999352 48.93855670103221,139.74456127778103 47.936494845402194,140.42958785549854 45.813608247437514,143.65097578970017 45.21237113402458,144.13232008726482 44.4552577319555,144.39150413004245 36.386804123729235,144.2711687989795 34.375257731968304,144.15083326447348 33.67752577320789,143.94718805033335 31.933195876306854,143.96570127571613 24.87422680412419,143.43807246596407 20.57649484538706,143.46584250082378 18.85443298969767,143.99347110473173 16.5979381443467,145.21533285583428 16.850309278379427,145.5855898517184 16.850309278379427,146.79816803162248 16.122886597935576,149.31582164574502 16.494020618585637,152.7867054546732 16.39010309279547,153.8418205938142 16.130309278378263,154.93394084811007 15.432577319617849,156.75718902930385 15.3212371134141,158.61740936085698 15.425154639175162,159.17268959359353 14.348865979380207,159.5984015062204 14.348865979380207,160.01485634937126 14.081649484520312,160.16292859552777 14.0,160.3757819099992" stroke="#4DD2FF" stroke-linecap="round" stroke-linejoin="round" stroke-width="0.5"><title>2026-05-16 12.0km</title><desc>1778892818000</desc></polyline><polyline fill="none" points="114.0,160.1222940348598 120.65262351589627,158.18836549742264 120.54921486022067,157.1827003080616 120.6181539639656,156.04808532422612 121.32133282267023,154.21718827605218 121.5695135963324,153.07392638159945 121.59708923785365,151.32890959051292 121.32822673305054,149.0508627051895 121.85216392186703,147.4862718326258 122.03829950210638,145.5089886466958 124.14094216775266,144.17643836094794 125.45767905015964,143.78956389212544 131.80007659897092,144.10766084308852 139.50057449250016,144.70946169840317 147.2493297586916,144.87280669956817 148.29720413635368,144.6148933553559 148.86939869780326,144.21082709305483 150.8962083492952,140.98680568086274 151.70968977402663,140.42795931286673 152.28877824588562,140.23021254329797 157.03178858672618,140.6429007827537 160.6924549980904,140.47094766276132 167.8414400612528,139.87770596513292 182.64266564534046,139.92929241104866 182.8219073151995,140.22161484423123 182.85637686710106,140.71168190550088 182.74607430101605,147.40890099357784 185.97242435844964,147.46907832066063 186.0,148.33734508638736 185.76560704709846,148.95630057184462 185.23477594790165,148.9906868177859 185.1520490233379,148.80156224368693 184.0352355419309,148.81015882698557 183.95250861739623,148.37173165426793 185.00727690538042,148.43190810500528 185.5794714668591,148.29436185141094 184.92454998084577,147.83014113293757" stroke="#4DD2FF" stroke-linecap="round" stroke-linejoin="round" stroke-width="0.5"><title>2026-04-29 12.8km</title><desc>1777440323000</desc></polyline><polyline fill="none" points="14.0,237.22648957990532 15.306939989037346,236.8334089528671 15.681558563490398,236.79129283262955 17.1603160941886,236.81586057739696 19.13199280180561,236.48594899984164 19.70096236601239,236.2051700197444 20.489633049059194,235.6506229716524 20.810734684302588,235.50320981826007 21.26703700805956,235.39089449548737 22.664110789453844,235.3066576973324 23.351380956097273,235.38738463412847 23.844300133001525,235.50320981826007 24.444253188325092,235.56287714378777 24.954072451291722,235.55234762532018 25.65542602300411,235.3663254564508 27.266567561222473,234.75209222763806 28.08058837337012,234.54851470843641 29.317111337120878,234.53447482303272 30.10014865816629,234.63275386773967 30.25788279477274,234.50288505426397 30.322666458014282,233.52709402426444 30.387450121270376,233.54815463404702 30.255066113750217,233.5165637132177 30.328299820044776,233.49901318570664 30.409983569348697,231.57189597933575 30.331116501052747,230.51525794418922 30.593067835070542,230.40643241263024 31.401455285187694,229.7148534761618 32.052108598698396,229.3146423567723 32.9393631171115,228.9530430056202 34.398403880753904,228.94953230859574 35.87716141145211,229.0232568502106 40.141616461929516,229.0337889111761 40.22048353024002,229.19879066397698 40.4880682262592,229.2760251809941 40.3894843908929,229.34974883234827 40.42328456301766,229.29357844954575 40.52750176041445,229.31113170672143 40.66551912995055,229.2409186097102 40.845786714649876,229.22336530695975 40.983804084171425,229.0337889111761 41.17252171190921,229.02676753765445 45.076441592987976,229.0864491544562 47.039668257551966,229.05134233699573 53.89546983802575,229.09698119080167 53.889836476009805,228.89336109433316 55.224943275155965,229.10400254608612 57.28957045613788,229.08995983368732 57.50363821296196,229.04432096803248 58.70636100460251,228.47558402649884 62.06947813158331,228.1631246888537 64.79320866911439,227.75235804293516 67.34512166495551,226.9553827314885 71.71942727484566,225.39998438454677 76.74720287925447,225.14366861834424 77.38658946873329,225.2033588084014 78.70197950082365,225.4877631978361 79.16673186760454,225.49127434443471 79.60613410529913,225.42807363581596 80.33847116812831,225.17526932360488 86.0,222.77351042009468" stroke="yellow" stroke-linecap="round" stroke-linejoin="round" stroke-width="0.5"><title>2026-04-29 24.2km</title><desc>1777430359000</desc></polyline></svg>