<?xml version="1.0" encoding="utf-8" ?>
<svg baseProfile="full" height="300mm" version="1.1" viewBox="0,0,200,300" width="200mm" xmlns="http://www.w3.org/2000/svg" xmlns:ev="http://www.w3.org/2001/xml-events" xmlns:xlink="http://www.w3.org/1999/xlink"><defs /><rect fill="#222222" height="300" width="200" x="0" y="0" /><text fill="#FFFFFF" style="font-size:12px; font-family:Arial; font-weight:bold;" x="10" y="20">Over 10km Runs</text><text fill="#FFFFFF" style="font-size:4px; font-family:Arial" x="10" y="280">Runner</text><text fill="#FFFFFF" style="font-size:9px; font-family:Arial" x="10" y="290">yihong0618</text><text fill="#FFFFFF" style="font-size:4px; font-family:Arial" x="65" y="280">SPECIAL TRACKS</text><rect fill="yellow" height="2.6" width="2.6" x="65" y="283" /><text fill="#FFFFFF" style="font-size:3px; font-family:Arial" x="70" y="285.5">Over 20.0 km</text><rect fill="red" height="2.6" width="2.6" x="65" y="287" /><text fill="#FFFFFF" style="font-size:3px; font-family:Arial" x="70" y="289.5">Over 40.0 km</text><text fill="#FFFFFF" style="font-size:4px; font-family:Arial" x="120" y="280">STATISTICS</text><text fill="#FFFFFF" style="font-size:3px; font-family:Arial" x="120" y="285">Number: 3</text><text fill="#FFFFFF" style="font-size:3px; font-family:Arial" x="120" y="290">Weekly: 1.5</text><text fill="#FFFFFF" style="font-size:3px; font-family:Arial" x="141" y="285">Total: 49.0 km</text><text fill="#FFFFFF" style="font-size:3px; font-family:Arial" x="141" y="290">Avg: 16.3 km</text><text fill="#FFFFFF" style="font-size:3px; font-family:Arial" x="167" y="285">Min: 12.0 km</text><text fill="#FFFFFF" style="font-size:3px; font-family:Arial" x="167" y="290">Max: 24.2 km</text><polyline fill="none" points="94.30587628867943,72.7516531542351 94.94886597938603,72.83495789103472 94.91546391751035,73.0119801690671 94.43948453609482,73.12652378752682 94.43948453609482,73.90749863782548 94.54804123713984,74.16782189551304 95.02402061858447,74.1990606295949 95.19938144326443,74.10534439085313 95.48329896904761,73.3868495838251 95.5,72.15810439613415 95.19103092784644,71.98108023066743 74.69886597938603,71.9914934276967 73.88886597941746,71.88736139640241 63.46742268037633,71.85612176059658 62.51546391751617,69.62766296721384 62.3484536082251,63.94168805844674 62.164742268039845,63.97293078197981 62.13134020619327,63.79588852069719 61.91422680413234,63.733402923280664 59.53432989688008,63.85837406938663 55.19206185566145,63.34807399480633 54.323608247417724,63.32724535124726 53.805876288650325,63.462631437512755 52.678556701052,64.2332863374395 50.29030927835265,67.85734776341269 49.613917525770376,68.39886009817565 48.762164948449936,68.69044214629685 39.68515463915537,68.55506489885738 37.42216494845343,68.41968742253812 36.637216494826134,68.19058655662957 34.67484536083066,68.21141393519065 26.73350515461061,67.61783152421413 21.898556701053167,67.6490728134304 19.961237113398965,68.24265499282774 17.422680412390037,69.61724946281174 17.706597938144114,70.03378858319047 17.706597938144114,71.39793903558166 16.888247422670247,74.23029935146769 17.305773195897928,78.13504363651009 17.188865979376715,79.32204816804733 16.896597938146442,80.5506834541302 16.111649484548252,82.6018376579741 15.986391752550844,84.69458553097502 16.103298969042953,85.31927579279727 14.892474226799095,85.7982016945025 14.892474226799095,86.26671339304448 14.591855670092627,86.43329466997966 14.5,86.67275464875274" stroke="#4DD2FF" stroke-linecap="round" stroke-linejoin="round" stroke-width="0.5"><title>2026-05-16 12.0km</title><desc>1778892818000</desc></polyline><polyline fill="none" points="104.5,86.38758078921819 111.98420145537239,84.2119111846041 111.86786671774462,83.08053784657386 111.94542320948676,81.8040959897553 112.73649942551856,79.74433681055962 113.01570279587759,78.45816717930575 113.04672539260355,76.49502328933886 112.74425507467822,73.93222054334183 113.33368441209313,72.17205581170856 113.54308693986968,69.94761222753732 115.9085599387181,68.4484931560728 117.38988893144415,68.01325937864749 124.52508617387502,68.37111844847823 133.18814630407724,69.0481444107063 141.9054959785426,69.23190753701783 143.08435465340153,68.94175502478174 143.7280735350505,68.48718047969305 146.008234392968,64.86015639097604 146.92340099578723,64.23145422698144 147.57487552662496,64.00898911121476 152.91076216008514,64.4732633806052 157.02901187285897,64.27981612061558 165.0716200689203,63.61241921078181 181.72299885100801,63.670453962433385 181.9246457296249,63.999316699766496 181.96342397548142,64.55064214369486 181.83933358866489,72.08501361778326 185.46897740327404,72.15271311075048 185.5,73.12951322219305 185.2363079279894,73.82583814333339 184.63912294141483,73.86452267001732 184.54605515126605,73.65175752415234 183.28963998466497,73.66142868035968 183.1965721945744,73.16819811105233 184.3831865185639,73.23589661814185 185.02690540024196,73.08115708283731 184.29011872847332,72.55890877456113" stroke="#4DD2FF" stroke-linecap="round" stroke-linejoin="round" stroke-width="0.5"><title>2026-04-29 12.8km</title><desc>1777440323000</desc></polyline><polyline fill="none" points="14.5,233.12980077739303 15.97030748767429,232.68758507197526 16.39175338394125,232.6402044367078 18.05535560597491,232.66784314957113 20.273491902044043,232.29669262482093 20.913582661771215,231.9808162722111 21.80083718019887,231.3569508431101 22.16207651984587,231.19111104554213 22.675416634068824,231.06475630742352 24.247124638131936,230.96998990949942 25.020303575627622,231.06080771339475 25.57483764963399,231.19111104554213 26.24978483688028,231.25823678675988 26.823331507708644,231.24639107848452 27.6123542758869,231.03711613850646 29.424888506386196,230.3461037560919 30.340661920039565,230.11707904699142 31.7317502542719,230.10128417591113 32.61266724043526,230.21184810120758 32.79011814412661,230.06574568604628 32.86299976527516,228.96798077729727 32.93588138643827,228.99167396330267 32.786949377987185,228.95613417736968 32.86933729755401,228.93638983391975 32.96123151552456,226.76838297675204 32.872506063693436,225.5796651872115 33.16720131447073,225.4572364642081 34.07663719584525,224.6792101606825 34.80862217354297,224.22897265136817 35.80678350676317,223.8221733813225 37.44820436584996,223.81822384716907 39.11180658789817,223.9011639564851 43.90931851968344,223.9130125250722 43.998043971529114,224.0986394969732 44.299076754556154,224.1855283286186 44.18816993976361,224.2684674363918 44.22619513339305,224.20527575573942 44.34343948047899,224.22502317006183 44.498709021208924,224.14603343592353 44.70151005398657,224.12628597032926 44.85677959470195,223.9130125250722 45.069086925912416,223.90511347986103 49.460996792127844,223.97225529876232 51.66962678976415,223.93276012911883 59.3824035677826,223.98410383965165 59.376066035518306,223.75503123112503 60.87806118455774,223.99200286434643 63.200766763155116,223.97620481289778 63.4415929895913,223.92486108903722 64.7946561301942,223.2850320298112 68.5781628980476,222.93351527495906 71.64235975276097,222.47140279830273 74.51326187308587,221.57480557292365 79.43435568420682,219.8249824326158 85.09060323917947,219.53662719563545 85.80991315233405,219.60377865945156 87.28972693842661,219.92373359756493 87.81257335105329,219.9276836374902 88.3069008684688,219.8565828402916 89.13078006415162,219.5721779890555 95.5,216.87019922260697" stroke="yellow" stroke-linecap="round" stroke-linejoin="round" stroke-width="0.5"><title>2026-04-29 24.2km</title><desc>1777430359000</desc></polyline></svg>