<?xml version="1.0" encoding="utf-8" ?>
<svg baseProfile="full" height="300mm" version="1.1" viewBox="0,0,200,300" width="200mm" xmlns="http://www.w3.org/2000/svg" xmlns:ev="http://www.w3.org/2001/xml-events" xmlns:xlink="http://www.w3.org/1999/xlink"><defs /><rect fill="#222222" height="300" width="200" x="0" y="0" /><text fill="#FFFFFF" style="font-size:12px; font-family:Arial; font-weight:bold;" x="10" y="20">Over 10km Runs</text><text fill="#FFFFFF" style="font-size:4px; font-family:Arial" x="10" y="280">Runner</text><text fill="#FFFFFF" style="font-size:9px; font-family:Arial" x="10" y="290">yihong0618</text><text fill="#FFFFFF" style="font-size:4px; font-family:Arial" x="65" y="280">SPECIAL TRACKS</text><rect fill="yellow" height="2.6" width="2.6" x="65" y="283" /><text fill="#FFFFFF" style="font-size:3px; font-family:Arial" x="70" y="285.5">Over 20.0 km</text><rect fill="red" height="2.6" width="2.6" x="65" y="287" /><text fill="#FFFFFF" style="font-size:3px; font-family:Arial" x="70" y="289.5">Over 40.0 km</text><text fill="#FFFFFF" style="font-size:4px; font-family:Arial" x="120" y="280">STATISTICS</text><text fill="#FFFFFF" style="font-size:3px; font-family:Arial" x="120" y="285">Number: 2</text><text fill="#FFFFFF" style="font-size:3px; font-family:Arial" x="120" y="290">Weekly: 2.0</text><text fill="#FFFFFF" style="font-size:3px; font-family:Arial" x="141" y="285">Total: 36.9 km</text><text fill="#FFFFFF" style="font-size:3px; font-family:Arial" x="141" y="290">Avg: 18.5 km</text><text fill="#FFFFFF" style="font-size:3px; font-family:Arial" x="167" y="285">Min: 12.8 km</text><text fill="#FFFFFF" style="font-size:3px; font-family:Arial" x="167" y="290">Max: 24.2 km</text><polyline fill="none" points="46.0,105.18344105229335 55.978935273888055,102.28254824613396 55.82382229034556,100.77405046209606 55.927230946021155,99.07212798634282 56.98199923400534,96.32578241408191 57.354270394542255,94.61088957240281 57.39563385682413,91.9933643857803 56.992340099590365,88.57629405779153 57.77824588282965,86.2294077489496 58.057449253159575,83.26348297004733 61.211413251643535,81.26465754142555 63.18651857529767,80.6843458381918 72.70011489850003,81.16149126463279 84.25086173880845,82.0641925476084 95.87399463809561,82.30921004935226 97.44580620457418,81.92234003304475 98.304098046734,81.31624063958589 101.34431252395734,76.48020852129412 102.56453466106905,75.64193896931101 103.43316736881388,75.34531881495786 110.54768288013292,75.96435117413785 116.0386824971647,75.70642149414925 126.76216009195196,74.81655894770665 148.9639984680689,74.893938616573 149.232860972872,75.33242226635048 149.2845653006807,76.06752285826224 149.11911145155318,86.1133514903704 153.95863653771812,86.20361748099822 154.0,87.50601762958831 153.64841057069134,88.43445085777785 152.85216392186703,88.48603022668249 152.7280735350214,88.20234336553403 151.05285331292544,88.215238240482 150.928762926138,87.55759748140554 152.5109153581434,87.64786215751519 153.3692072003032,87.44154277711641 152.38682497129776,86.74521169941727" stroke="#4DD2FF" stroke-linecap="round" stroke-linejoin="round" stroke-width="0.5"><title>2026-04-29 12.8km</title><desc>1777440323000</desc></polyline><polyline fill="none" points="46.0,220.83973436985616 47.96040998357057,220.25011342929793 48.52233784525015,220.18693924893887 50.74047414129018,220.22379086609362 53.69798920273024,219.72892349975882 54.551443549018586,219.30775502961478 55.73444957358879,218.4759344574777 56.21610202646116,218.2548147273883 56.900555512096616,218.08634174323015 58.996166184180765,217.9599865459968 60.02707143416046,218.0810769511918 60.76645019951684,218.2548147273883 61.66637978250219,218.3443157156762 62.43110867695941,218.32852143797936 63.483139034506166,218.04948818467528 65.89985134184826,217.12813834145345 67.12088256006246,216.8227720626528 68.97566700569587,216.80171223454454 70.15022298725671,216.94913080160768 70.38682419217366,216.7543275813914 70.4839996870287,215.29064103639394 70.58117518191284,215.3222319510678 70.38259917063988,215.2748455698238 70.49244973006716,215.24851977855724 70.6149753540376,212.35784396900272 70.4966747515864,210.772886916282 70.88960175262764,210.60964861894172 72.10218292778882,209.5722802142409 73.07816289806215,208.97196353515392 74.40904467568907,208.42956450842757 76.59760582113813,208.42429846289087 78.81574211719271,208.53488527531226 85.2124246929161,208.5506833667605 85.3307252953673,208.79818599596183 85.73210233940335,208.91403777149026 85.58422658634663,209.0246232485224 85.63492684453377,208.9403676743168 85.79125264062895,208.96669756008123 85.99827869494038,208.86137791455985 86.26868007198209,208.8350479604378 86.47570612626441,208.5506833667605 86.75878256787837,208.54015130647895 92.61466238950379,208.62967373168067 95.55950238635705,208.57701350549178 105.84320475705317,208.64547178619978 105.83475471402926,208.34004164149883 107.8374149127485,208.65600381912736 110.93435568422137,208.63493975052916 111.25545731946477,208.566481452046 113.0595415069256,207.71337603974462 118.10421719739679,207.2446870332751 122.18981300367159,206.6285370644 126.01768249744782,205.4330740972291 132.57914091227576,203.09997657681743 140.12080431889626,202.71550292751272 141.0798842031072,202.80503821259845 143.05296925123548,203.23164479675324 143.75009780141409,203.23691151665116 144.40920115796325,203.14211045372213 145.507706752207,202.76290398540732 154.0,199.1602656301402" stroke="yellow" stroke-linecap="round" stroke-linejoin="round" stroke-width="0.5"><title>2026-04-29 24.2km</title><desc>1777430359000</desc></polyline></svg>