<?xml version="1.0" encoding="utf-8" ?>
<svg baseProfile="full" height="300mm" version="1.1" viewBox="0,0,200,300" width="200mm" xmlns="http://www.w3.org/2000/svg" xmlns:ev="http://www.w3.org/2001/xml-events" xmlns:xlink="http://www.w3.org/1999/xlink"><defs /><rect fill="#222222" height="300" width="200" x="0" y="0" /><text fill="#FFFFFF" style="font-size:12px; font-family:Arial; font-weight:bold;" x="10" y="20">Over 10km Runs</text><text fill="#FFFFFF" style="font-size:4px; font-family:Arial" x="10" y="280">Runner</text><text fill="#FFFFFF" style="font-size:9px; font-family:Arial" x="10" y="290">yihong0618</text><text fill="#FFFFFF" style="font-size:4px; font-family:Arial" x="65" y="280">SPECIAL TRACKS</text><rect fill="yellow" height="2.6" width="2.6" x="65" y="283" /><text fill="#FFFFFF" style="font-size:3px; font-family:Arial" x="70" y="285.5">Over 20.0 km</text><rect fill="red" height="2.6" width="2.6" x="65" y="287" /><text fill="#FFFFFF" style="font-size:3px; font-family:Arial" x="70" y="289.5">Over 40.0 km</text><text fill="#FFFFFF" style="font-size:4px; font-family:Arial" x="120" y="280">STATISTICS</text><text fill="#FFFFFF" style="font-size:3px; font-family:Arial" x="120" y="285">Number: 4</text><text fill="#FFFFFF" style="font-size:3px; font-family:Arial" x="120" y="290">Weekly: 1.3</text><text fill="#FFFFFF" style="font-size:3px; font-family:Arial" x="141" y="285">Total: 76.7 km</text><text fill="#FFFFFF" style="font-size:3px; font-family:Arial" x="141" y="290">Avg: 19.2 km</text><text fill="#FFFFFF" style="font-size:3px; font-family:Arial" x="167" y="285">Min: 12.0 km</text><text fill="#FFFFFF" style="font-size:3px; font-family:Arial" x="167" y="290">Max: 27.7 km</text><polyline fill="none" points="84.91482103496674,39.74706604038511 85.69701899864594,41.45504061818065 85.64600608794717,43.07539188014198 86.00309646269307,45.42922004566208 85.98609215917531,47.739186395956494 86.39419544456177,48.122349497294636 86.58124278366449,47.826766700796725 87.12538049754221,47.531182774415356 87.71202897027251,47.498340046193334 88.01810643437784,47.64065843444405 87.57599454183946,47.85960928953136 87.05736328326748,48.38508881236339 87.43145796158933,52.56690273474669 87.18489555999986,52.68731811075122 87.15088695287704,53.49738031242305 86.69177075682092,55.675748739646224 89.60800881704199,55.719534410622146 90.09263146846206,56.529564852971816 90.05862286133924,56.90173815769231 90.3136874147167,57.23012488047971 90.90033588750521,59.11284851239907 91.47848220847663,62.40750459771516 91.48698436023551,64.7060187623938 91.73354676182498,65.59257025932311 91.62301878872677,68.16460660992743 91.19791119976435,70.01423095423525 91.65702739584958,70.44106106137042 93.22992547499598,71.27282578623999 93.49349218013231,71.63398400069855 95.5,72.476679944637 93.56150939434883,71.66681648206577 92.86433294849121,70.97733144761878 91.43597144959494,70.30972897151514 91.2149155033112,69.98139777153119 91.24042195867514,69.37945361907623 91.63152094048564,68.28499770567578 91.75055106543005,65.52690012653329 91.48698436023551,64.57467693575745 91.48698436023551,62.188594924577046 90.91734019102296,59.12379444601538 90.35619817359839,57.27390967154497 90.10113362025004,56.879845659925195 90.00760995069868,56.17928245958319 89.61651096885907,55.68669515974034 87.04035897974973,55.719534410622146 86.72577936391463,55.68669515974034 86.70027290857979,55.54439157791785 86.68326860503294,55.664802318031434 87.19339771178784,52.70921179529978 87.39744935443741,52.64353072299127 87.45696441692417,52.391752762225224 87.14238480111817,48.37414135870495 87.70352681854274,47.78297656078212 88.05211504144245,47.69539620636351 87.87356985412771,47.432654547876155 87.32943214022089,47.4107593693916 87.53348378295777,47.37791659000504 87.47396872047102,46.73200576081581 87.95008922010311,46.55684257206303 87.93308491655625,46.09703731384798 87.167891256453,44.07167208204919 86.45371050696122,43.61185204552021 85.88406633780687,42.97685797578015 86.36018683740986,42.96590975644358 86.11362443579128,42.111943871139374 85.11887267764541,39.90034735127119 83.91156712500378,38.42226490427129 84.0646058570419,38.400367174144776 82.55122284032404,38.3675205672771 78.78476960217813,37.5572998472926 76.81227038943325,37.86387084802118 74.865277631965,37.76533030177234 73.83651726672542,37.283574712258996 72.01705678598955,35.78354376475909 69.9170252965414,35.3455730351634 68.20809278890374,35.542660170533054 67.27285609324463,36.0791726046009 67.00928938805009,36.34195284653106 66.40563661174383,37.73248342513398 66.16757636191323,37.809126115607796 65.7509709247388,37.56824883256195 65.24934396977187,36.74707063628739 64.50965676497435,36.25435953182023 63.07279311431921,35.739746803446906 61.90799832055927,35.59740650784806 61.43187782095629,35.30177582572651 59.71444316155976,38.99160371130711 59.59541303664446,39.889398696301214 59.68893670619582,40.86382291868358 59.35735278681386,42.12289221138053 59.144798992347205,42.15573722290719 58.16705153774819,41.345556200081774 56.71318358348799,40.76528619590681 56.46662118189852,41.7287509851667 55.964994226931594,42.14478888727899 55.930985619837884,42.81263452280837 55.57389524512109,43.9731394472401 55.63341030754964,46.392626722292334 54.63015639758669,47.57497305702418 54.40059829960228,49.337511346209794 54.060512228432344,49.44698444905225 52.538627059955616,48.702564293693285 51.73942479272955,48.8667752381225 51.19528707882273,49.90676978855481 50.78718379343627,51.78967170620308 50.99123543614405,52.7639459796701 50.91471607013955,53.43169990945171 50.141020258219214,54.47163307268056 49.69040621392196,54.20891443575238 49.052744830492884,52.8734142321191 48.262044715025695,52.63258387216047 48.15151674192748,51.76777776134986 47.173769287299365,50.016242085526756 46.808176760794595,47.301283383887494 46.16201322560664,46.87432555947453 45.762412091949955,46.09703731384798 45.49884538681363,46.22841052377771 45.345806654775515,47.585920623794664 44.57211084285518,49.40319522648497 43.69638920965372,50.77159671083791 43.45832895982312,52.041451627155766 42.98220846019103,52.26039002251491 42.61661593365716,52.0305046911235 41.82591581818997,50.913909075148695 40.85667051540804,50.300869332386355 40.312532801530324,49.39224791698507 39.513330534275156,49.074775267159566 39.24976382913883,48.73540651046642 39.181746614922304,48.05666452906007 38.127479794289684,47.13706911501504 37.710874357115244,46.326940284721786 37.4132990448561,46.27220154414681 37.07321297368617,46.46926082892605 36.94568069698289,46.84148255227046 36.94568069698289,48.03476952723577 37.472814107255545,49.206143418268766 37.77889157136087,51.00148578455264 38.238007767417,51.78967170620308 38.391046499455115,53.19087128802494 38.9861971239734,53.88051488459314 39.419806864723796,54.97517463225813 39.56434344497393,55.46776646387298 39.428309016511776,56.441994403343415 40.76314684582758,58.63122589914565 41.409310381044634,61.039308976134635 40.967198488506256,62.06819434029603 40.873674818954896,63.217465001536766 40.59310381024261,63.88512868699763 40.210506980190985,64.04930739901465 39.41130471290671,63.359754466917366 39.147738007770386,63.68811377261591 39.181746614922304,64.0930883300316 39.93843812326668,65.86619521263492 39.76839508765261,66.28210328795831 38.9861971239734,67.19052630802616 39.12223155243555,67.89098978634865 38.739634722383926,69.53267621132545 37.56633777686511,71.42604462858435 37.13272803614382,71.76531384252303 36.37603652779944,71.9404199514538 36.7076204471814,72.15930203028256 38.09347118716687,71.60115150542697 37.608848535775905,73.41786196625617 37.243256009271136,74.29336984677502 36.971187152317725,74.57790777479386 34.1909835205588,76.23039582448109 32.68610265562893,77.82813216760405 33.0516951821337,78.20020301814657 33.655347958469065,77.33568270249816 33.45979846754926,77.40134281227802 33.46830061930814,77.54360619231011 33.068699485680554,77.42322950313246 32.754119869845454,77.67492600318656 31.257741156732664,80.13713119229942 30.586071166180773,81.9317558313196 30.279993702133652,83.29958202571288 30.305500157468487,86.35248288740695 30.12695497009554,87.24972834091022 30.339508764562197,91.2324972187489 29.04718169415719,93.78179938397079 26.8026136244589,96.79052438047802 25.92689199122833,98.9129727532636 24.515534795849817,101.58236127701821 23.078671145165572,103.69373863939109 22.11792799414252,104.56890408389154 20.698068647034233,107.59908800340054 19.36323081771843,108.90082734698808 17.322714390727924,110.42131869879813 14.874094678321853,111.8214569880729 14.984622651420068,111.53705594725034 14.5,110.82604877472477 15.22268290122156,111.73394908681075 15.358717329741921,112.36837913038471 16.038889472052688,113.45127357479214 16.22593681118451,114.03099871973973 15.962370106048184,114.02006054961385 15.766820615128381,114.22788551742269 16.013383016717853,114.40289558395307 18.02839298840263,113.92161694912647 18.43649627378909,114.69822417427349 22.85761519894004,113.69191472791135 23.860869108873885,113.92161694912647" stroke="yellow" stroke-linecap="round" stroke-linejoin="round" stroke-width="0.5"><title>2026-05-23 27.7km</title><desc>1779484688000</desc></polyline><polyline fill="none" points="184.30587628867943,72.7516531542351 184.94886597938603,72.83495789103472 184.91546391751035,73.0119801690671 184.43948453609482,73.12652378752682 184.43948453609482,73.90749863782548 184.54804123713984,74.16782189551304 185.02402061858447,74.1990606295949 185.19938144326443,74.10534439085313 185.4832989690476,73.3868495838251 185.5,72.15810439613415 185.19103092784644,71.98108023066743 164.69886597938603,71.9914934276967 163.88886597941746,71.88736139640241 153.46742268037633,71.85612176059658 152.51546391751617,69.62766296721384 152.3484536082251,63.94168805844674 152.16474226803984,63.97293078197981 152.13134020619327,63.79588852069719 151.91422680413234,63.733402923280664 149.53432989688008,63.85837406938663 145.19206185566145,63.34807399480633 144.32360824741772,63.32724535124726 143.80587628865032,63.462631437512755 142.678556701052,64.2332863374395 140.29030927835265,67.85734776341269 139.61391752577038,68.39886009817565 138.76216494844994,68.69044214629685 129.68515463915537,68.55506489885738 127.42216494845343,68.41968742253812 126.63721649482613,68.19058655662957 124.67484536083066,68.21141393519065 116.73350515461061,67.61783152421413 111.89855670105317,67.6490728134304 109.96123711339897,68.24265499282774 107.42268041239004,69.61724946281174 107.70659793814411,70.03378858319047 107.70659793814411,71.39793903558166 106.88824742267025,74.23029935146769 107.30577319589793,78.13504363651009 107.18886597937671,79.32204816804733 106.89659793814644,80.5506834541302 106.11164948454825,82.6018376579741 105.98639175255084,84.69458553097502 106.10329896904295,85.31927579279727 104.8924742267991,85.7982016945025 104.8924742267991,86.26671339304448 104.59185567009263,86.43329466997966 104.5,86.67275464875274" stroke="#4DD2FF" stroke-linecap="round" stroke-linejoin="round" stroke-width="0.5"><title>2026-05-16 12.0km</title><desc>1778892818000</desc></polyline><polyline fill="none" points="14.5,236.3875807892182 21.984201455372386,234.2119111846041 21.86786671774462,233.08053784657386 21.945423209486762,231.8040959897553 22.73649942551856,229.74433681055962 23.015702795877587,228.45816717930575 23.04672539260355,226.49502328933886 22.74425507467822,223.93222054334183 23.333684412093135,222.17205581170856 23.54308693986968,219.94761222753732 25.9085599387181,218.4484931560728 27.389888931444148,218.0132593786475 34.525086173875025,218.37111844847823 43.188146304077236,219.0481444107063 51.9054959785426,219.23190753701783 53.08435465340153,218.94175502478174 53.7280735350505,218.48718047969305 56.008234392968006,214.86015639097604 56.92340099578723,214.23145422698144 57.574875526624965,214.00898911121476 62.91076216008514,214.4732633806052 67.02901187285897,214.27981612061558 75.07162006892031,213.6124192107818 91.72299885100801,213.67045396243338 91.9246457296249,213.9993166997665 91.96342397548142,214.55064214369486 91.83933358866489,222.08501361778326 95.46897740327404,222.15271311075048 95.5,223.12951322219305 95.2363079279894,223.82583814333339 94.63912294141483,223.86452267001732 94.54605515126605,223.65175752415234 93.28963998466497,223.66142868035968 93.1965721945744,223.16819811105233 94.38318651856389,223.23589661814185 95.02690540024196,223.0811570828373 94.29011872847332,222.55890877456113" stroke="#4DD2FF" stroke-linecap="round" stroke-linejoin="round" stroke-width="0.5"><title>2026-04-29 12.8km</title><desc>1777440323000</desc></polyline><polyline fill="none" points="104.5,233.12980077739303 105.97030748767429,232.68758507197526 106.39175338394125,232.6402044367078 108.05535560597491,232.66784314957113 110.27349190204404,232.29669262482093 110.91358266177122,231.9808162722111 111.80083718019887,231.3569508431101 112.16207651984587,231.19111104554213 112.67541663406882,231.06475630742352 114.24712463813194,230.96998990949942 115.02030357562762,231.06080771339475 115.57483764963399,231.19111104554213 116.24978483688028,231.25823678675988 116.82333150770864,231.24639107848452 117.6123542758869,231.03711613850646 119.4248885063862,230.3461037560919 120.34066192003957,230.11707904699142 121.7317502542719,230.10128417591113 122.61266724043526,230.21184810120758 122.79011814412661,230.06574568604628 122.86299976527516,228.96798077729727 122.93588138643827,228.99167396330267 122.78694937798718,228.95613417736968 122.86933729755401,228.93638983391975 122.96123151552456,226.76838297675204 122.87250606369344,225.5796651872115 123.16720131447073,225.4572364642081 124.07663719584525,224.6792101606825 124.80862217354297,224.22897265136817 125.80678350676317,223.8221733813225 127.44820436584996,223.81822384716907 129.11180658789817,223.9011639564851 133.90931851968344,223.9130125250722 133.9980439715291,224.0986394969732 134.29907675455615,224.1855283286186 134.1881699397636,224.2684674363918 134.22619513339305,224.20527575573942 134.343439480479,224.22502317006183 134.49870902120892,224.14603343592353 134.70151005398657,224.12628597032926 134.85677959470195,223.9130125250722 135.06908692591242,223.90511347986103 139.46099679212784,223.97225529876232 141.66962678976415,223.93276012911883 149.3824035677826,223.98410383965165 149.3760660355183,223.75503123112503 150.87806118455774,223.99200286434643 153.20076676315512,223.97620481289778 153.4415929895913,223.92486108903722 154.7946561301942,223.2850320298112 158.5781628980476,222.93351527495906 161.64235975276097,222.47140279830273 164.51326187308587,221.57480557292365 169.43435568420682,219.8249824326158 175.09060323917947,219.53662719563545 175.80991315233405,219.60377865945156 177.2897269384266,219.92373359756493 177.8125733510533,219.9276836374902 178.3069008684688,219.8565828402916 179.13078006415162,219.5721779890555 185.5,216.87019922260697" stroke="yellow" stroke-linecap="round" stroke-linejoin="round" stroke-width="0.5"><title>2026-04-29 24.2km</title><desc>1777430359000</desc></polyline></svg>