<?xml version="1.0" encoding="utf-8" ?>
<svg baseProfile="full" height="200mm" version="1.1" viewBox="0,0,200,200" width="200mm" xmlns="http://www.w3.org/2000/svg" xmlns:ev="http://www.w3.org/2001/xml-events" xmlns:xlink="http://www.w3.org/1999/xlink"><defs /><rect fill="#1a1a1a" height="200" width="200" x="0" y="0" /><rect fill="#1a1a1a" height="200" width="180" x="10" y="0" /><text alignment-baseline="middle" fill="#e1ed5e" style="dominant-baseline: central; font-size:9.0px; font-family:Arial;" text-anchor="middle" x="100.0" y="100.0">2026</text><line stroke="#e1ed5e" stroke-width="0.3" x1="100.0" x2="100.0" y1="15.0" y2="10.0" /><path d="M 100.0 14.0 a86.0,86.0 0 0,1 42.46469731375804,11.215312516191453" fill="none" id="id13" stroke="none" /><text fill="#e1ed5e" style="font-size:6.75px; font-family:Arial;" text-anchor="middle"><textPath startOffset="22.20632615414155" xlink:href="#id13">January</textPath></text><path d="M 100.0 79.0 l 0.0 -4.175327085925272 a25.17532708592527,25.17532708592527 0 0,0 0.4333518714696634,0.003729996371807924 l -0.07187139219713506 4.174708466162023" fill="red" stroke="none" /><path d="M 100.36148047927253 79.00311137660856 l 0.14349494992298925 -8.335021264815264 a29.336256371152224,29.336256371152224 0 0,0 0.5048257940775845,0.013038160879856663 l -0.28694737919544167 8.331316311793048" fill="red" stroke="none" /><path d="M 100.72285384407766 79.0124445844662 l 0.19244698676566246 -5.587563561276306 a26.590876710679456,26.590876710679456 0 0,0 0.4573113761365192,0.019692789836471773 l -0.2885991952915131 5.58342304491564" fill="red" stroke="none" /><path d="M 101.44485096284872 79.0497635885617 l 0.6021130465639307 -8.730596439548828 a29.751334430308624,29.751334430308624 0 0,0 0.5106034670592948,0.03963265620148533 l -0.7523067029855667 8.718938521158877" fill="red" stroke="none" /><path d="M 101.80526077348638 79.07773832637324 l 0.8250806817056442 -9.562360285025116 a30.59788999478268,30.59788999478268 0 0,0 0.5243529415799574,0.04979362997886546 l -0.9895587503758458 9.546741110531073" fill="red" stroke="none" /><path d="M 102.16513564639614 79.11191278185805 l 0.9113723309902781 -8.792439757579647 a29.839547297026126,29.839547297026126 0 0,0 0.5104456638708649,0.057354517881589046 l -1.0625846983708682 8.775449286227456" fill="red" stroke="none" /><path d="M 102.52436894288641 79.15227682838746 l 1.4973022313743203 -12.365602307021504 a33.45592366657303,33.45592366657303 0 0,0 0.5711169466015338,0.07414737083499774 l -1.7099339064837002 12.33799661302237" fill="red" stroke="none" /><path d="M 102.88285421437855 79.19881850522331 l 1.3168441560210935 -9.50166475748601 a30.592482040374044,30.592482040374044 0 0,0 0.520991454443667,0.07678059746353366 l -1.4802045908934163 9.477589675861507" fill="red" stroke="none" /><path d="M 103.95276090670814 79.375362276772 l 1.9617329600608893 -10.235891460651692 a31.422181643054945,31.422181643054945 0 0,0 0.5303369839106736,0.10638060982117012 l -2.137636353438688 10.200606894753312" fill="red" stroke="none" /><path d="M 104.66035177308747 79.52364482259891 l 2.346557037677218 -10.310152041522077 a31.573815066019186,31.573815066019186 0 0,0 0.5289009644024455,0.12517377016925366 l -2.5236816890421867 10.268232359211956" fill="red" stroke="none" /><path d="M 105.36241919743992 79.69619591428918 l 2.6855407255148616 -10.168301049847626 a31.51696131155436,31.51696131155436 0 0,0 0.5233348064092214,0.1430471716784819 l -2.860173421147794 10.12056733734285" fill="red" stroke="none" /><path d="M 109.08828744355905 81.06846463323043 l 2.2324973058620254 -4.650447288845159 a26.158556407272144,26.158556407272144 0 0,0 0.40424776988991334,0.19836262505619132 l -2.3122163427623708 4.611329503654136" fill="red" stroke="none" /><path d="M 109.41281617654863 81.2277094730956 l 9.750823050328249 -19.446388811166056 a42.7540935907212,42.7540935907212 0 0,0 0.6550324393077785,0.33553305701141745 l -10.084115977224782 19.275663228842138" fill="red" stroke="none" /><path d="M 109.73455568895987 81.39251694778311 l 9.124672771937737 -17.441699383713534 a40.68432194887025,40.68432194887025 0 0,0 0.6177332181921064,0.3299716917021056 l -9.423551036658154 17.282048965509677" fill="red" stroke="none" /><line stroke="#e1ed5e" stroke-width="0.3" x1="143.23703022742887" x2="145.7803849466894" y1="26.81831364943548" y2="22.513508569990506" /><path d="M 143.74570117128098 25.957352633546492 a86.0,86.0 0 0,1 28.547481713284135,27.462654790039103" fill="none" id="id14" stroke="none" /><text fill="#e1ed5e" style="font-size:6.75px; font-family:Arial;" text-anchor="middle"><textPath startOffset="19.985693538727396" xlink:href="#id14">February</textPath></text><path d="M 110.99172775467656 82.1063720568725 l 5.926208156880093 -9.64737903262053 a32.32218465304812,32.32218465304812 0 0,0 0.47156658719910033,0.29529495364247477 l -6.091393896451456 9.54393973765511" fill="red" stroke="none" /><path d="M 111.2981086023043 82.29822771554956 l 6.111401483322937 -9.575287440109312 a32.35937311875426,32.35937311875426 0 0,0 0.4669503371396342,0.3037174883442721 l -6.275318846246852 9.468671027605513" fill="red" stroke="none" /><path d="M 111.60114157652 82.49532879139004 l 7.4863803457542435 -11.296011313253693 a34.55159629971506,34.55159629971506 0 0,0 0.4929283834359491,0.3328274448808431 l -7.679713423596734 11.16547195607418" fill="red" stroke="none" /><path d="M 113.06298171725822 83.55741782278167 l 6.40036037333677 -8.056235067937461 a31.289195127824378,31.289195127824378 0 0,0 0.4188231624801864,0.3386592035270182 l -6.538086934381448 7.944869767146313" fill="red" stroke="none" /><path d="M 113.34407831869373 83.78471172551755 l 3.9580729155656353 -4.80972097169172 a27.228945097724445,27.228945097724445 0 0,0 0.3593474719232533,0.30094317345567045 l -4.040277924448006 4.74087664084223" fill="red" stroke="none" /><path d="M 113.6212207817346 84.01681056812373 l 6.966956224778934 -8.175051479493803 a31.74104025364209,31.74104025364209 0 0,0 0.4127940443177305,0.3579709274922764 l -7.106644067743429 8.053915558581854" fill="red" stroke="none" /><path d="M 114.42810811169701 84.74124197986012 l 12.105237908171551 -12.802156359451383 a38.61908034675122,38.61908034675122 0 0,0 0.4790913117431921,0.46088546231340194 l -12.323812463527162 12.59188781037568" fill="red" stroke="none" /><path d="M 116.60985879189232 87.15038557335679 l 3.222325048966897 -2.492834825106998 a25.074015732231008,25.074015732231008 0 0,0 0.2611566912303816,0.3436515932159313 l -3.264757680421392 2.436998456010033" fill="red" stroke="none" /><line stroke="#e1ed5e" stroke-width="0.3" x1="172.23445277983987" x2="176.4835382374775" y1="55.19839476539836" y2="52.563006222186495" /><path d="M 173.08426987136738 54.67131705675599 a86.0,86.0 0 0,1 12.851231095245387,41.99856678651699" fill="none" id="id15" stroke="none" /><text fill="#e1ed5e" style="font-size:6.75px; font-family:Arial;" text-anchor="middle"><textPath startOffset="22.20632615414155" xlink:href="#id15">March</textPath></text><path d="M 120.91429891909075 98.10471618934814 l 33.83241290091621 -3.065941856069802 a54.9710488822892,54.9710488822892 0 0,0 0.07728802824920833,0.9431097080371542 l -33.88017541298492 2.483118230824879" fill="red" stroke="none" /><path d="M 120.94382443527127 98.46500227214037 l 27.616164457956092 -2.024021440122978 a48.690236585463744,48.690236585463744 0 0,0 0.05406797814420001,0.8364076908372042 l -27.646913027104706 1.5483546850327383" fill="red" stroke="none" /><line stroke="#e1ed5e" stroke-width="0.3" x1="184.98032266829074" x2="189.97916517819016" y1="98.17113171792111" y2="98.06355123074" /><path d="M 185.9800911702706 98.14961562048488 a86.0,86.0 0 0,1 -9.607161424134198,41.387399972396054" fill="none" id="id16" stroke="none" /><text fill="#e1ed5e" style="font-size:6.75px; font-family:Arial;" text-anchor="middle"><textPath startOffset="21.466115282336823" xlink:href="#id16">April</textPath></text><path d="M 119.54520255179757 107.68017299344265 l 58.635607655392704 23.040518980327946 a84.0,84.0 0 0,0 -0.5403895429704302,1.341202528628746 l -58.230315498164885 -24.046420876799505" fill="red" stroke="none" /><line stroke="#e1ed5e" stroke-width="0.3" x1="174.80103733775053" x2="179.2010983576182" y1="140.37084112569926" y2="142.7455964860345" /><path d="M 175.68104954172406 140.8457921977663 a86.0,86.0 0 0,1 -30.038265399797805,32.042727171017184" fill="none" id="id17" stroke="none" /><text fill="#e1ed5e" style="font-size:6.75px; font-family:Arial;" text-anchor="middle"><textPath startOffset="22.206326154141568" xlink:href="#id17">May</textPath></text><line stroke="#e1ed5e" stroke-width="0.3" x1="143.8653032363475" x2="146.44561519142675" y1="172.8068346515853" y2="177.08958963109032" /><path d="M 144.38136562736335 173.6633856474863 a86.0,86.0 0 0,1 -40.68145358897372,12.25698825130547" fill="none" id="id18" stroke="none" /><text fill="#e1ed5e" style="font-size:6.75px; font-family:Arial;" text-anchor="middle"><textPath startOffset="21.466115282336833" xlink:href="#id18">June</textPath></text><line stroke="#e1ed5e" stroke-width="0.3" x1="102.19456741930631" x2="102.32365962044197" y1="184.97166512339345" y2="189.96999836594603" /><path d="M 102.22038585953345 185.97133177190398 a86.0,86.0 0 0,1 -42.740103519485714,-10.115201625700543" fill="none" id="id19" stroke="none" /><text fill="#e1ed5e" style="font-size:6.75px; font-family:Arial;" text-anchor="middle"><textPath startOffset="22.20632615414155" xlink:href="#id19">July</textPath></text><line stroke="#e1ed5e" stroke-width="0.3" x1="58.666819895761336" x2="56.23545636021788" y1="174.27360380694188" y2="178.64263932499728" /><path d="M 58.180547188652646 175.14741091055294 a86.0,86.0 0 0,1 -31.652253787137756,-30.449443065178592" fill="none" id="id20" stroke="none" /><text fill="#e1ed5e" style="font-size:6.75px; font-family:Arial;" text-anchor="middle"><textPath startOffset="22.20632615414155" xlink:href="#id20">August</textPath></text><line stroke="#e1ed5e" stroke-width="0.3" x1="26.63291911575756" x2="22.317208475507996" y1="142.92168965132927" y2="145.44649492493687" /><path d="M 25.769776987707644 143.4266507060508 a86.0,86.0 0 0,1 -11.730757126820373,-40.83630448921669" fill="none" id="id21" stroke="none" /><text fill="#e1ed5e" style="font-size:6.75px; font-family:Arial;" text-anchor="middle"><textPath startOffset="21.46611528233685" xlink:href="#id21">September</textPath></text><line stroke="#e1ed5e" stroke-width="0.3" x1="15.007084014347285" x2="10.007500721073583" y1="101.09737516637583" y2="101.16192664675087" /><path d="M 14.007167355692545 101.11028546245083 a86.0,86.0 0 0,1 10.666146001902534,-42.60595125391555" fill="none" id="id22" stroke="none" /><text fill="#e1ed5e" style="font-size:6.75px; font-family:Arial;" text-anchor="middle"><textPath startOffset="22.20632615414155" xlink:href="#id22">October</textPath></text><line stroke="#e1ed5e" stroke-width="0.3" x1="26.266209847984243" x2="21.928928074336255" y1="57.711370442889674" y2="55.22380399835377" /><path d="M 25.398753493254645 57.213857153982495 a86.0,86.0 0 0,1 29.58750427330803,-30.492523968695096" fill="none" id="id23" stroke="none" /><text fill="#e1ed5e" style="font-size:6.75px; font-family:Arial;" text-anchor="middle"><textPath startOffset="21.46611528233685" xlink:href="#id23">November</textPath></text><line stroke="#e1ed5e" stroke-width="0.3" x1="56.762969772571076" x2="54.21961505331055" y1="26.818313649435495" y2="22.513508569990535" /><path d="M 56.25429882871897 25.957352633546506 a86.0,86.0 0 0,1 42.265352541879196,-11.944610805530505" fill="none" id="id24" stroke="none" /><text fill="#e1ed5e" style="font-size:6.75px; font-family:Arial;" text-anchor="middle"><textPath startOffset="22.20632615414155" xlink:href="#id24">December</textPath></text></svg>