<?xml version="1.0" encoding="utf-8" ?>
<svg baseProfile="full" height="200mm" version="1.1" viewBox="0,0,200,200" width="200mm" xmlns="http://www.w3.org/2000/svg" xmlns:ev="http://www.w3.org/2001/xml-events" xmlns:xlink="http://www.w3.org/1999/xlink"><defs /><rect fill="#1a1a1a" height="200" width="200" x="0" y="0" /><rect fill="#1a1a1a" height="200" width="180" x="10" y="0" /><text alignment-baseline="middle" fill="#e1ed5e" style="dominant-baseline: central; font-size:9.0px; font-family:Arial;" text-anchor="middle" x="100.0" y="100.0">2026</text><line stroke="#e1ed5e" stroke-width="0.3" x1="100.0" x2="100.0" y1="15.0" y2="10.0" /><path d="M 100.0 14.0 a86.0,86.0 0 0,1 42.46469731375804,11.215312516191453" fill="none" id="id13" stroke="none" /><text fill="#e1ed5e" style="font-size:6.75px; font-family:Arial;" text-anchor="middle"><textPath startOffset="22.20632615414155" xlink:href="#id13">January</textPath></text><path d="M 100.0 79.0 l 0.0 -2.0278512100694144 a23.027851210069414,23.027851210069414 0 0,0 0.39638660438249357,0.0034118246476373343 l -0.034906125109965165 2.027550762030336" fill="#ff0100" stroke="none" /><path d="M 100.36148047927253 79.00311137660856 l 0.06969188325893752 -4.048109910906378 a25.0487097709481,25.0487097709481 0 0,0 0.4310445968549861,0.011132610231331696 l -0.1393631153087914 4.046310508532687" fill="#ff1e03" stroke="none" /><path d="M 100.72285384407766 79.0124445844662 l 0.09346665469694075 -2.7137388989880726 a23.715348012211553,23.715348012211553 0 0,0 0.4078578736994117,0.017563217993324196 l -0.14016536078568398 2.7117279544705535" fill="#ff0b01" stroke="none" /><path d="M 101.44485096284872 79.0497635885617 l 0.2924311425059699 -4.240230810718259 a25.250302730544234,25.250302730544234 0 0,0 0.4333550869361432,0.033636695168993966 l -0.3653764188044543 4.234568853360801" fill="#ff2103" stroke="none" /><path d="M 101.80526077348638 79.07773832637324 l 0.4007209074569814 -4.64419756250324 a25.661453447717157,25.661453447717157 0 0,0 0.4397577284846108,0.04176029516784936 l -0.4806037630318364 4.636611722820212" fill="#ff2703" stroke="none" /><path d="M 102.16513564639614 79.11191278185805 l 0.4426305882603362 -4.270266552762575 a25.293145498268892,25.293145498268892 0 0,0 0.43267333504529937,0.0486158905603328 l -0.5160706268153609 4.262014708731641" fill="#ff2203" stroke="none" /><path d="M 102.52436894288641 79.15227682838746 l 0.7272019842390837 -6.005661612968896 a27.049528422560673,27.049528422560673 0 0,0 0.46175512096649507,0.059949067162158 l -0.8304718337134248 5.992254222642601" fill="#ff3b05" stroke="none" /><path d="M 102.88285421437855 79.19881850522331 l 0.6395580418745678 -4.614719273393655 a25.658826940460152,25.658826940460152 0 0,0 0.43697106855816376,0.064398176653399 l -0.7188980908613873 4.603026612579288" fill="#ff2703" stroke="none" /><path d="M 103.95276090670814 79.375362276772 l 0.9527642924796065 -4.971314691630177 a26.061791141507342,26.061791141507342 0 0,0 0.4398654385715387,0.088232868938249 l -1.0381961405182705 4.954177866614719" fill="#ff2d04" stroke="none" /><path d="M 104.66035177308747 79.52364482259891 l 1.1396636551879018 -5.00738118550705 a26.135435676155065,26.135435676155065 0 0,0 0.4378012953231407,0.10361342181044238 l -1.225688637473566 4.987021851555739" fill="#ff2e04" stroke="none" /><path d="M 105.36241919743992 79.69619591428918 l 1.3042994950703781 -4.938487731366359 a26.10782323947265,26.10782323947265 0 0,0 0.4335168129227795,0.1184965211642771 l -1.3891141972168684 4.915304669375788" fill="#ff2e04" stroke="none" /><path d="M 109.08828744355905 81.06846463323043 l 1.0842677160382934 -2.258605126730775 a23.505380928828476,23.505380928828476 0 0,0 0.3632462614890412,0.17824336295147927 l -1.1229852445377664 2.239606603644464" fill="#ff0801" stroke="none" /><path d="M 109.41281617654863 81.2277094730956 l 4.735729181178399 -9.44462128850549 a31.56541538041717,31.56541538041717 0 0,0 0.4836114930263722,0.2477245903004052 l -4.897601161793527 9.361704172892583" fill="#ff7b0b" stroke="none" /><path d="M 109.73455568895987 81.39251694778311 l 4.431623760551666 -8.470994121671906 a30.56017942114509,30.56017942114509 0 0,0 0.4640125994007467,0.24785946082591992 l -4.576781406480724 8.393455934344232" fill="#ff6d0a" stroke="none" /><line stroke="#e1ed5e" stroke-width="0.3" x1="143.23703022742887" x2="145.7803849466894" y1="26.81831364943548" y2="22.513508569990506" /><path d="M 143.74570117128098 25.957352633546492 a86.0,86.0 0 0,1 28.547481713284135,27.462654790039103" fill="none" id="id14" stroke="none" /><text fill="#e1ed5e" style="font-size:6.75px; font-family:Arial;" text-anchor="middle"><textPath startOffset="19.985693538727396" xlink:href="#id14">February</textPath></text><path d="M 110.99172775467656 82.1063720568725 l 2.8782100503125987 -4.685489027014153 a26.498899936895604,26.498899936895604 0 0,0 0.38660740113660264,0.24209351912430943 l -2.9584366038214647 4.635251166566899" fill="#ff3304" stroke="none" /><path d="M 111.2981086023043 82.29822771554956 l 2.968153784874099 -4.650475956157383 a26.516961438098,26.516961438098 0 0,0 0.3826435091309709,0.2488819822604488 l -3.04776431978935 4.5986950497374055" fill="#ff3404" stroke="none" /><path d="M 111.60114157652 82.49532879139004 l 3.6359463895301958 -5.486188204932712 a27.581669025975135,27.581669025975135 0 0,0 0.3934923124102209,0.26568776585121484 l -3.729843396346958 5.422788526782827" fill="#ff4306" stroke="none" /><path d="M 113.06298171725822 83.55741782278167 l 3.1084938403275064 -3.912710476309982 a25.99720294032371,25.99720294032371 0 0,0 0.34798692349305776,0.28138122459631526 l -3.1753841623850554 3.858623154449537" fill="#ff2c04" stroke="none" /><path d="M 113.34407831869373 83.78471172551755 l 1.9223363310695138 -2.335960343183485 a24.02524175805434,24.02524175805434 0 0,0 0.31706736552284975,0.26553480025609966 l -1.962261233551481 2.302524385533566" fill="#ff0f01" stroke="none" /><path d="M 113.6212207817346 84.01681056812373 l 3.3836751756629813 -3.9704166150129403 a26.21665273821909,26.21665273821909 0 0,0 0.34094906864437735,0.29566767256049103 l -3.451518042954123 3.911583949032778" fill="#ff2f04" stroke="none" /><path d="M 114.42810811169701 84.74124197986012 l 5.87920918172186 -6.2176849216253185 a29.5571435880818,29.5571435880818 0 0,0 0.3666729131261467,0.3527390519127848 l -5.985365338460425 6.115562782950232" fill="#ff5f08" stroke="none" /><path d="M 116.60985879189232 87.15038557335679 l 1.5650021220640375 -1.210707092538157 a22.978646837105384,22.978646837105384 0 0,0 0.23933252020800108,0.3149335423510507 l -1.5856105824961522 1.1835887743060727" fill="#ff0000" stroke="none" /><line stroke="#e1ed5e" stroke-width="0.3" x1="172.23445277983987" x2="176.4835382374775" y1="55.19839476539836" y2="52.563006222186495" /><path d="M 173.08426987136738 54.67131705675599 a86.0,86.0 0 0,1 12.851231095245387,41.99856678651699" fill="none" id="id15" stroke="none" /><text fill="#e1ed5e" style="font-size:6.75px; font-family:Arial;" text-anchor="middle"><textPath startOffset="22.20632615414155" xlink:href="#id15">March</textPath></text><path d="M 120.91429891909075 98.10471618934814 l 16.43155087704641 -1.4890507437828284 a37.49888288165368,37.49888288165368 0 0,0 0.052722565393958906,0.6433488391674124 l -16.454747926259863 1.2059879874076473" fill="#ffca12" stroke="none" /><path d="M 120.94382443527127 98.46500227214037 l 13.412475564445996 -0.9830162385111112 a34.44845053127079,34.44845053127079 0 0,0 0.038253214628707774,0.5917602990325547 l -13.42740937007912 0.7519968752255213" fill="#ffa20e" stroke="none" /><line stroke="#e1ed5e" stroke-width="0.3" x1="184.98032266829074" x2="189.97916517819016" y1="98.17113171792111" y2="98.06355123074" /><path d="M 185.9800911702706 98.14961562048488 a86.0,86.0 0 0,1 -9.607161424134198,41.387399972396054" fill="none" id="id16" stroke="none" /><text fill="#e1ed5e" style="font-size:6.75px; font-family:Arial;" text-anchor="middle"><textPath startOffset="21.466115282336823" xlink:href="#id16">April</textPath></text><path d="M 119.54520255179757 107.68017299344265 l 28.477837901121895 11.190199793540573 a51.59751334572681,51.59751334572681 0 0,0 -0.33193757922985695,0.823841849645765 l -28.280997707634647 -11.678741011029153" fill="#8cff24" stroke="none" /><path d="M 118.81262510543309 109.33194174019688 l 56.43787531629926 27.995825220590632 a84.0,84.0 0 0,0 -0.6536853208549238,1.2897831531892228 l -55.94761132565807 -28.96316258548255" fill="#4dd2ff" stroke="none" /><line stroke="#e1ed5e" stroke-width="0.3" x1="174.80103733775053" x2="179.2010983576182" y1="140.37084112569926" y2="142.7455964860345" /><path d="M 175.68104954172406 140.8457921977663 a86.0,86.0 0 0,1 -30.038265399797805,32.042727171017184" fill="none" id="id17" stroke="none" /><text fill="#e1ed5e" style="font-size:6.75px; font-family:Arial;" text-anchor="middle"><textPath startOffset="22.206326154141568" xlink:href="#id17">May</textPath></text><path d="M 115.32070863581623 114.36230785411682 l 26.47245119358373 24.81644307277669 a57.28562413657837,57.28562413657837 0 0,0 -0.6805899010592079,0.7135957902980125 l -26.041354741145557 -25.26844597965721" fill="#50ff2b" stroke="none" /><path d="M 113.48314897796784 116.09983520530334 l 30.320383105167895 36.204685726793805 a68.22398649224839,68.22398649224839 0 0,0 -0.9068263133214296,0.7462563194424469 l -29.692686663301775 -36.72123716509343" fill="#39ff8b" stroke="none" /><path d="M 112.34349029814194 116.9893568818739 l 15.551532843911632 21.404848641973615 a47.45784796957345,47.45784796957345 0 0,0 -0.6650260826927508,0.4744784524636482 l -15.180779433369995 -21.669371356281484" fill="#bbff1f" stroke="none" /><line stroke="#e1ed5e" stroke-width="0.3" x1="143.8653032363475" x2="146.44561519142675" y1="172.8068346515853" y2="177.08958963109032" /><path d="M 144.38136562736335 173.6633856474863 a86.0,86.0 0 0,1 -40.68145358897372,12.25698825130547" fill="none" id="id18" stroke="none" /><text fill="#e1ed5e" style="font-size:6.75px; font-family:Arial;" text-anchor="middle"><textPath startOffset="21.466115282336833" xlink:href="#id18">June</textPath></text><path d="M 110.8373102113329 117.98757091392108 l 3.2091752534895734 5.326530875436163 a27.218579980557024,27.218579980557024 0 0,0 -0.40339507594919144,0.2383329212838854 l -3.1170123065119997 -5.380982369013798" fill="#ff3e05" stroke="none" /><path d="M 103.06178313531738 120.77559828337769 l 0.559481696501753 3.796339080761899 a24.837344157726875,24.837344157726875 0 0,0 -0.42350203874927655,0.058693523611284056 l -0.4940510665656459 -3.8054071698657856" fill="#ff1b02" stroke="none" /><line stroke="#e1ed5e" stroke-width="0.3" x1="102.19456741930631" x2="102.32365962044197" y1="184.97166512339345" y2="189.96999836594603" /><path d="M 102.22038585953345 185.97133177190398 a86.0,86.0 0 0,1 -42.740103519485714,-10.115201625700543" fill="none" id="id19" stroke="none" /><text fill="#e1ed5e" style="font-size:6.75px; font-family:Arial;" text-anchor="middle"><textPath startOffset="22.20632615414155" xlink:href="#id19">July</textPath></text><line stroke="#e1ed5e" stroke-width="0.3" x1="58.666819895761336" x2="56.23545636021788" y1="174.27360380694188" y2="178.64263932499728" /><path d="M 58.180547188652646 175.14741091055294 a86.0,86.0 0 0,1 -31.652253787137756,-30.449443065178592" fill="none" id="id20" stroke="none" /><text fill="#e1ed5e" style="font-size:6.75px; font-family:Arial;" text-anchor="middle"><textPath startOffset="22.20632615414155" xlink:href="#id20">August</textPath></text><line stroke="#e1ed5e" stroke-width="0.3" x1="26.63291911575756" x2="22.317208475507996" y1="142.92168965132927" y2="145.44649492493687" /><path d="M 25.769776987707644 143.4266507060508 a86.0,86.0 0 0,1 -11.730757126820373,-40.83630448921669" fill="none" id="id21" stroke="none" /><text fill="#e1ed5e" style="font-size:6.75px; font-family:Arial;" text-anchor="middle"><textPath startOffset="21.46611528233685" xlink:href="#id21">September</textPath></text><line stroke="#e1ed5e" stroke-width="0.3" x1="15.007084014347285" x2="10.007500721073583" y1="101.09737516637583" y2="101.16192664675087" /><path d="M 14.007167355692545 101.11028546245083 a86.0,86.0 0 0,1 10.666146001902534,-42.60595125391555" fill="none" id="id22" stroke="none" /><text fill="#e1ed5e" style="font-size:6.75px; font-family:Arial;" text-anchor="middle"><textPath startOffset="22.20632615414155" xlink:href="#id22">October</textPath></text><line stroke="#e1ed5e" stroke-width="0.3" x1="26.266209847984243" x2="21.928928074336255" y1="57.711370442889674" y2="55.22380399835377" /><path d="M 25.398753493254645 57.213857153982495 a86.0,86.0 0 0,1 29.58750427330803,-30.492523968695096" fill="none" id="id23" stroke="none" /><text fill="#e1ed5e" style="font-size:6.75px; font-family:Arial;" text-anchor="middle"><textPath startOffset="21.46611528233685" xlink:href="#id23">November</textPath></text><line stroke="#e1ed5e" stroke-width="0.3" x1="56.762969772571076" x2="54.21961505331055" y1="26.818313649435495" y2="22.513508569990535" /><path d="M 56.25429882871897 25.957352633546506 a86.0,86.0 0 0,1 42.265352541879196,-11.944610805530505" fill="none" id="id24" stroke="none" /><text fill="#e1ed5e" style="font-size:6.75px; font-family:Arial;" text-anchor="middle"><textPath startOffset="22.20632615414155" xlink:href="#id24">December</textPath></text></svg>