<?xml version="1.0" encoding="utf-8" ?>
<svg baseProfile="full" height="200mm" version="1.1" viewBox="0,0,200,200" width="200mm" xmlns="http://www.w3.org/2000/svg" xmlns:ev="http://www.w3.org/2001/xml-events" xmlns:xlink="http://www.w3.org/1999/xlink"><defs /><rect fill="#1a1a1a" height="200" width="200" x="0" y="0" /><rect fill="#1a1a1a" height="200" width="180" x="10" y="0" /><text alignment-baseline="middle" fill="#e1ed5e" style="dominant-baseline: central; font-size:9.0px; font-family:Arial;" text-anchor="middle" x="100.0" y="100.0">2026</text><line stroke="#e1ed5e" stroke-width="0.3" x1="100.0" x2="100.0" y1="15.0" y2="10.0" /><path d="M 100.0 14.0 a86.0,86.0 0 0,1 42.46469731375804,11.215312516191453" fill="none" id="id13" stroke="none" /><text fill="#e1ed5e" style="font-size:6.75px; font-family:Arial;" text-anchor="middle"><textPath startOffset="22.20632615414155" xlink:href="#id13">January</textPath></text><path d="M 100.0 79.0 l 0.0 -7.743228868933478 a28.74322886893348,28.74322886893348 0 0,0 0.49476743558962133,0.004258619521773982 l -0.13328695631709292 7.742081626020263" fill="red" stroke="none" /><path d="M 100.36148047927253 79.00311137660856 l 0.2661142985744377 -15.457466194313652 a36.45975672409676,36.45975672409676 0 0,0 0.6274088079696853,0.016204118473571227 l -0.5321497417389908 15.45059528369772" fill="red" stroke="none" /><path d="M 100.72285384407766 79.0124445844662 l 0.3568968449648801 -10.36225009066267 a31.368394393510712,31.368394393510712 0 0,0 0.5394753908782614,0.023230945147847345 l -0.535213068232473 10.354571418990627" fill="red" stroke="none" /><path d="M 101.44485096284872 79.0497635885617 l 1.1166308719217692 -16.19106838877539 a37.22952741376441,37.22952741376441 0 0,0 0.6389469964440171,0.04959458420225866 l -1.3951680577281276 16.169448542384664" fill="red" stroke="none" /><path d="M 101.80526077348638 79.07773832637324 l 1.5301288790807803 -17.733591330783376 a38.799481899028194,38.799481899028194 0 0,0 0.6649027913036735,0.06314053176154703 l -1.8351567974746978 17.704625254506652" fill="red" stroke="none" /><path d="M 102.16513564639614 79.11191278185805 l 1.6901584949978263 -16.305758077911616 a37.393119966424734,37.393119966424734 0 0,0 0.6396597024569081,0.07187322067638921 l -1.9705849009644596 16.274248903764626" fill="red" stroke="none" /><path d="M 102.52436894288641 79.15227682838746 l 2.7767773936989353 -22.932260585822036 a44.09976338126008,44.09976338126008 0 0,0 0.7528150308795604,0.0977369969442212 l -3.1711071530863415 22.881065265713676" fill="red" stroke="none" /><path d="M 102.88285421437855 79.19881850522331 l 2.442114228406432 -17.62103024242213 a38.78945273775842,38.78945273775842 0 0,0 0.6605862633913815,0.09735324360272726 l -2.7450694722264695 17.576382514658434" fill="red" stroke="none" /><path d="M 103.95276090670814 79.375362276772 l 3.63807361121161 -18.982668573334944 a40.32814749958393,40.32814749958393 0 0,0 0.6806500056103287,0.1365319879026305 l -3.9642900262890644 18.917232629355105" fill="red" stroke="none" /><path d="M 104.66035177308747 79.52364482259891 l 4.351737677747638 -19.120386328563676 a40.60935476168079,40.60935476168079 0 0,0 0.6802575758521409,0.16099498996340986 l -4.680218940562303 19.042645426459398" fill="red" stroke="none" /><path d="M 105.36241919743992 79.69619591428918 l 4.980389810561396 -18.8573207839449 a40.50391831950042,40.50391831950042 0 0,0 0.6725619910819145,0.18383659833908766 l -5.304249690867022 18.768797644779518" fill="red" stroke="none" /><path d="M 109.08828744355905 81.06846463323043 l 4.140211588893095 -8.62434893348227 a30.566647611742656,30.566647611742656 0 0,0 0.47236930577035496,0.2317895668641419 l -4.288052161673882 8.551804206483297" fill="red" stroke="none" /><path d="M 109.41281617654863 81.2277094730956 l 18.083099356138682 -36.063722946811296 a61.34340832290136,61.34340832290136 0 0,0 0.939838013497817,0.4814215340200719 l -18.701197857225253 35.747108887478724" fill="red" stroke="none" /><path d="M 109.73455568895987 81.39251694778311 l 16.92189094967208 -32.34598569450783 a57.50497478237588,57.50497478237588 0 0,0 0.8731307646964335,0.4663962160675607 l -17.476166760896824 32.04991075193852" fill="red" stroke="none" /><line stroke="#e1ed5e" stroke-width="0.3" x1="143.23703022742887" x2="145.7803849466894" y1="26.81831364943548" y2="22.513508569990506" /><path d="M 143.74570117128098 25.957352633546492 a86.0,86.0 0 0,1 28.547481713284135,27.462654790039103" fill="none" id="id14" stroke="none" /><text fill="#e1ed5e" style="font-size:6.75px; font-family:Arial;" text-anchor="middle"><textPath startOffset="19.985693538727396" xlink:href="#id14">February</textPath></text><path d="M 110.99172775467656 82.1063720568725 l 10.990273370042818 -17.891260324669037 a41.997221357916594,41.997221357916594 0 0,0 0.6127211560784845,0.38368593172520016 l -11.296613678493566 17.699430051620894" fill="red" stroke="none" /><path d="M 111.2981086023043 82.29822771554956 l 11.333718154639442 -17.757565002397893 a42.0661881227523,42.0661881227523 0 0,0 0.6070210524169342,0.39482337788105537 l -11.637706232840657 17.559842700357308" fill="red" stroke="none" /><path d="M 111.60114157652 82.49532879139004 l 13.883644376621167 -20.948682367767585 a46.131710529172125,46.131710529172125 0 0,0 0.6581354244541082,0.4443759764446445 l -14.242184495481816 20.706594479024268" fill="red" stroke="none" /><path d="M 113.06298171725822 83.55741782278167 l 11.869598284038755 -14.940451530911293 a40.081521306540665,40.081521306540665 0 0,0 0.5365133056968342,0.4338231145406938 l -12.12501498830008 14.73392231910647" fill="red" stroke="none" /><path d="M 113.34407831869373 83.78471172551755 l 7.34032659823577 -8.919725212681136 a32.55170517449727,32.55170517449727 0 0,0 0.4295933213448009,0.35977205218373515 l -7.492777456539688 8.792052003103581" fill="red" stroke="none" /><path d="M 113.6212207817346 84.01681056812373 l 12.920361796361925 -15.160798978939372 a40.91947726795806,40.91947726795806 0 0,0 0.5321601427624814,0.4614840318104981 l -13.179415737771171 14.936149953709203" fill="red" stroke="none" /><path d="M 114.42810811169701 84.74124197986012 l 22.44940952095255 -23.741858941126907 a53.67494229252444,53.67494229252444 0 0,0 0.6658677078732904,0.6405642074078118 l -22.854760472438258 23.35191164695679" fill="red" stroke="none" /><path d="M 116.60985879189232 87.15038557335679 l 5.97586723884619 -4.6230128049893136 a28.55534490618465,28.55534490618465 0 0,0 0.29741623648482796,0.39136490447466293 l -6.054559415555131 4.519463124633616" fill="red" stroke="none" /><line stroke="#e1ed5e" stroke-width="0.3" x1="172.23445277983987" x2="176.4835382374775" y1="55.19839476539836" y2="52.563006222186495" /><path d="M 173.08426987136738 54.67131705675599 a86.0,86.0 0 0,1 12.851231095245387,41.99856678651699" fill="none" id="id15" stroke="none" /><text fill="#e1ed5e" style="font-size:6.75px; font-family:Arial;" text-anchor="middle"><textPath startOffset="22.20632615414155" xlink:href="#id15">March</textPath></text><path d="M 120.91429891909075 98.10471618934814 l 62.74289675727228 -5.6858514319555935 a84.0,84.0 0 0,0 0.118102064722021,1.441144331168925 l -62.831473305813795 4.6049931835789" fill="red" stroke="none" /><path d="M 120.94382443527127 98.46500227214037 l 51.214737786865555 -3.75358886237471 a72.35210605150618,72.35210605150618 0 0,0 0.08034325489080839,1.2428745923944748 l -51.27176163276078 2.8714552057272003" fill="red" stroke="none" /><line stroke="#e1ed5e" stroke-width="0.3" x1="184.98032266829074" x2="189.97916517819016" y1="98.17113171792111" y2="98.06355123074" /><path d="M 185.9800911702706 98.14961562048488 a86.0,86.0 0 0,1 -9.607161424134198,41.387399972396054" fill="none" id="id16" stroke="none" /><text fill="#e1ed5e" style="font-size:6.75px; font-family:Arial;" text-anchor="middle"><textPath startOffset="21.466115282336823" xlink:href="#id16">April</textPath></text><line stroke="#e1ed5e" stroke-width="0.3" x1="174.80103733775053" x2="179.2010983576182" y1="140.37084112569926" y2="142.7455964860345" /><path d="M 175.68104954172406 140.8457921977663 a86.0,86.0 0 0,1 -30.038265399797805,32.042727171017184" fill="none" id="id17" stroke="none" /><text fill="#e1ed5e" style="font-size:6.75px; font-family:Arial;" text-anchor="middle"><textPath startOffset="22.206326154141568" xlink:href="#id17">May</textPath></text><line stroke="#e1ed5e" stroke-width="0.3" x1="143.8653032363475" x2="146.44561519142675" y1="172.8068346515853" y2="177.08958963109032" /><path d="M 144.38136562736335 173.6633856474863 a86.0,86.0 0 0,1 -40.68145358897372,12.25698825130547" fill="none" id="id18" stroke="none" /><text fill="#e1ed5e" style="font-size:6.75px; font-family:Arial;" text-anchor="middle"><textPath startOffset="21.466115282336833" xlink:href="#id18">June</textPath></text><line stroke="#e1ed5e" stroke-width="0.3" x1="102.19456741930631" x2="102.32365962044197" y1="184.97166512339345" y2="189.96999836594603" /><path d="M 102.22038585953345 185.97133177190398 a86.0,86.0 0 0,1 -42.740103519485714,-10.115201625700543" fill="none" id="id19" stroke="none" /><text fill="#e1ed5e" style="font-size:6.75px; font-family:Arial;" text-anchor="middle"><textPath startOffset="22.20632615414155" xlink:href="#id19">July</textPath></text><line stroke="#e1ed5e" stroke-width="0.3" x1="58.666819895761336" x2="56.23545636021788" y1="174.27360380694188" y2="178.64263932499728" /><path d="M 58.180547188652646 175.14741091055294 a86.0,86.0 0 0,1 -31.652253787137756,-30.449443065178592" fill="none" id="id20" stroke="none" /><text fill="#e1ed5e" style="font-size:6.75px; font-family:Arial;" text-anchor="middle"><textPath startOffset="22.20632615414155" xlink:href="#id20">August</textPath></text><line stroke="#e1ed5e" stroke-width="0.3" x1="26.63291911575756" x2="22.317208475507996" y1="142.92168965132927" y2="145.44649492493687" /><path d="M 25.769776987707644 143.4266507060508 a86.0,86.0 0 0,1 -11.730757126820373,-40.83630448921669" fill="none" id="id21" stroke="none" /><text fill="#e1ed5e" style="font-size:6.75px; font-family:Arial;" text-anchor="middle"><textPath startOffset="21.46611528233685" xlink:href="#id21">September</textPath></text><line stroke="#e1ed5e" stroke-width="0.3" x1="15.007084014347285" x2="10.007500721073583" y1="101.09737516637583" y2="101.16192664675087" /><path d="M 14.007167355692545 101.11028546245083 a86.0,86.0 0 0,1 10.666146001902534,-42.60595125391555" fill="none" id="id22" stroke="none" /><text fill="#e1ed5e" style="font-size:6.75px; font-family:Arial;" text-anchor="middle"><textPath startOffset="22.20632615414155" xlink:href="#id22">October</textPath></text><line stroke="#e1ed5e" stroke-width="0.3" x1="26.266209847984243" x2="21.928928074336255" y1="57.711370442889674" y2="55.22380399835377" /><path d="M 25.398753493254645 57.213857153982495 a86.0,86.0 0 0,1 29.58750427330803,-30.492523968695096" fill="none" id="id23" stroke="none" /><text fill="#e1ed5e" style="font-size:6.75px; font-family:Arial;" text-anchor="middle"><textPath startOffset="21.46611528233685" xlink:href="#id23">November</textPath></text><line stroke="#e1ed5e" stroke-width="0.3" x1="56.762969772571076" x2="54.21961505331055" y1="26.818313649435495" y2="22.513508569990535" /><path d="M 56.25429882871897 25.957352633546506 a86.0,86.0 0 0,1 42.265352541879196,-11.944610805530505" fill="none" id="id24" stroke="none" /><text fill="#e1ed5e" style="font-size:6.75px; font-family:Arial;" text-anchor="middle"><textPath startOffset="22.20632615414155" xlink:href="#id24">December</textPath></text></svg>