<?xml version="1.0" encoding="utf-8" ?>
<svg baseProfile="full" height="200mm" version="1.1" viewBox="0,0,200,200" width="200mm" xmlns="http://www.w3.org/2000/svg" xmlns:ev="http://www.w3.org/2001/xml-events" xmlns:xlink="http://www.w3.org/1999/xlink"><defs /><rect fill="#1a1a1a" height="200" width="200" x="0" y="0" /><rect fill="#1a1a1a" height="200" width="180" x="10" y="0" /><text alignment-baseline="middle" fill="#e1ed5e" style="dominant-baseline: central; font-size:9.0px; font-family:Arial;" text-anchor="middle" x="100.0" y="100.0">2026</text><line stroke="#e1ed5e" stroke-width="0.3" x1="100.0" x2="100.0" y1="15.0" y2="10.0" /><path d="M 100.0 14.0 a86.0,86.0 0 0,1 42.46469731375804,11.215312516191453" fill="none" id="id13" stroke="none" /><text fill="#e1ed5e" style="font-size:6.75px; font-family:Arial;" text-anchor="middle"><textPath startOffset="22.20632615414155" xlink:href="#id13">January</textPath></text><path d="M 100.0 79.0 l 0.0 -12.091775063682235 a33.091775063682235,33.091775063682235 0 0,0 0.5696205099999313,0.004902903565182504 l -0.20814003072740292 12.089983536725612" fill="red" stroke="none" /><path d="M 100.36148047927253 79.00311137660856 l 0.41556233117449887 -24.138277124418373 a45.1418540006005,45.1418540006005 0 0,0 0.7768125558923343,0.02006277649842183 l -0.8310015222617011 24.127547555777593" fill="red" stroke="none" /><path d="M 100.72285384407766 79.0124445844662 l 0.5573277560692332 -16.181621306922818 a37.19121620967195,37.19121620967195 0 0,0 0.6396166042244534,0.027543236447172322 l -0.8357851926830182 16.16963034395145" fill="red" stroke="none" /><path d="M 101.44485096284872 79.0497635885617 l 1.7437233951088318 -25.283865466414113 a46.34392282584482,46.34392282584482 0 0,0 0.7953716404699527,0.06173614715290682 l -2.178685224941126 25.250104057072743" fill="red" stroke="none" /><path d="M 101.80526077348638 79.07773832637324 l 2.389439152253474 -27.692659105481514 a48.79555338169632,48.79555338169632 0 0,0 0.8362044557999604,0.07940768890000124 l -2.865768735143679 27.647425872066332" fill="red" stroke="none" /><path d="M 102.16513564639614 79.11191278185805 l 2.639340343597558 -25.462964127532462 a46.59938787567677,46.59938787567677 0 0,0 0.7971453200480145,0.08956856478358748 l -3.077252367155298 25.413759609278273" fill="red" stroke="none" /><path d="M 102.52436894288641 79.15227682838746 l 4.336197239530903 -35.810866680955925 a57.07243794008543,57.07243794008543 0 0,0 0.9742680195081252,0.12648795061153903 l -4.951979987546874 35.73092040718025" fill="red" stroke="none" /><path d="M 102.88285421437855 79.19881850522331 l 3.8135894508017767 -27.51688445327561 a48.779891909692296,48.779891909692296 0 0,0 0.8307239275353915,0.1224271126510719 l -4.286682358765824 27.447162856463567" fill="red" stroke="none" /><path d="M 103.95276090670814 79.375362276772 l 5.681191724602614 -29.643209878259878 a51.182707487868896,51.182707487868896 0 0,0 0.8638509899104392,0.17328038188785358 l -6.1906091239801775 29.541025540294815" fill="red" stroke="none" /><path d="M 104.66035177308747 79.52364482259891 l 6.795644817705489 -29.858269015305687 a51.62183889120265,51.62183889120265 0 0,0 0.864730483683899,0.20465376716657663 l -7.308598988351912 29.736869335998243" fill="red" stroke="none" /><path d="M 105.36241919743992 79.69619591428918 l 7.777343836545815 -29.447467598173695 a51.457190039420034,51.457190039420034 0 0,0 0.8544395610172575,0.23355060866742436 l -8.283081286786784 29.309230448679976" fill="red" stroke="none" /><path d="M 109.08828744355905 81.06846463323043 l 6.46532707431663 -13.467726337364358 a35.939213730181024,35.939213730181024 0 0,0 0.5553955950712829,0.2725302064448917 l -6.696193936398345 13.354440970784635" fill="red" stroke="none" /><path d="M 109.41281617654863 81.2277094730956 l 28.23844852964587 -56.31687158071319 a84.0,84.0 0 0,0 1.2869580496449777,0.6592298987499978 l -29.203667066879603 55.82244915665069" fill="red" stroke="none" /><path d="M 109.73455568895987 81.39251694778311 l 26.425113150992004 -50.51127764029834 a78.00592753300339,78.00592753300339 0 0,0 1.184408399716749,0.632669948468239 l -27.290666597237063 50.048928965328344" fill="red" stroke="none" /><line stroke="#e1ed5e" stroke-width="0.3" x1="143.23703022742887" x2="145.7803849466894" y1="26.81831364943548" y2="22.513508569990506" /><path d="M 143.74570117128098 25.957352633546492 a86.0,86.0 0 0,1 28.547481713284135,27.462654790039103" fill="none" id="id14" stroke="none" /><text fill="#e1ed5e" style="font-size:6.75px; font-family:Arial;" text-anchor="middle"><textPath startOffset="19.985693538727396" xlink:href="#id14">February</textPath></text><path d="M 110.99172775467656 82.1063720568725 l 17.16233831239431 -27.938873965051464 a53.78912220209788,53.78912220209788 0 0,0 0.7847598501633649,0.4914165461782921 l -17.640717314929937 27.639313077550227" fill="red" stroke="none" /><path d="M 111.2981086023043 82.29822771554956 l 17.698659419832943 -27.730096232747155 a53.89682024659312,53.89682024659312 0 0,0 0.77773874952834,0.5058629169040018 l -18.17336519514556 27.421334391683622" fill="red" stroke="none" /><path d="M 111.60114157652 82.49532879139004 l 21.680607367786973 -32.713324035643716 a60.245513186823835,60.245513186823835 0 0,0 0.8594891873257714,0.5803309359594212 l -22.240501249519284 32.335281187385625" fill="red" stroke="none" /><line stroke="#e1ed5e" stroke-width="0.3" x1="172.23445277983987" x2="176.4835382374775" y1="55.19839476539836" y2="52.563006222186495" /><path d="M 173.08426987136738 54.67131705675599 a86.0,86.0 0 0,1 12.851231095245387,41.99856678651699" fill="none" id="id15" stroke="none" /><text fill="#e1ed5e" style="font-size:6.75px; font-family:Arial;" text-anchor="middle"><textPath startOffset="22.20632615414155" xlink:href="#id15">March</textPath></text><line stroke="#e1ed5e" stroke-width="0.3" x1="184.98032266829074" x2="189.97916517819016" y1="98.17113171792111" y2="98.06355123074" /><path d="M 185.9800911702706 98.14961562048488 a86.0,86.0 0 0,1 -9.607161424134198,41.387399972396054" fill="none" id="id16" stroke="none" /><text fill="#e1ed5e" style="font-size:6.75px; font-family:Arial;" text-anchor="middle"><textPath startOffset="21.466115282336823" xlink:href="#id16">April</textPath></text><line stroke="#e1ed5e" stroke-width="0.3" x1="174.80103733775053" x2="179.2010983576182" y1="140.37084112569926" y2="142.7455964860345" /><path d="M 175.68104954172406 140.8457921977663 a86.0,86.0 0 0,1 -30.038265399797805,32.042727171017184" fill="none" id="id17" stroke="none" /><text fill="#e1ed5e" style="font-size:6.75px; font-family:Arial;" text-anchor="middle"><textPath startOffset="22.206326154141568" xlink:href="#id17">May</textPath></text><line stroke="#e1ed5e" stroke-width="0.3" x1="143.8653032363475" x2="146.44561519142675" y1="172.8068346515853" y2="177.08958963109032" /><path d="M 144.38136562736335 173.6633856474863 a86.0,86.0 0 0,1 -40.68145358897372,12.25698825130547" fill="none" id="id18" stroke="none" /><text fill="#e1ed5e" style="font-size:6.75px; font-family:Arial;" text-anchor="middle"><textPath startOffset="21.466115282336833" xlink:href="#id18">June</textPath></text><line stroke="#e1ed5e" stroke-width="0.3" x1="102.19456741930631" x2="102.32365962044197" y1="184.97166512339345" y2="189.96999836594603" /><path d="M 102.22038585953345 185.97133177190398 a86.0,86.0 0 0,1 -42.740103519485714,-10.115201625700543" fill="none" id="id19" stroke="none" /><text fill="#e1ed5e" style="font-size:6.75px; font-family:Arial;" text-anchor="middle"><textPath startOffset="22.20632615414155" xlink:href="#id19">July</textPath></text><line stroke="#e1ed5e" stroke-width="0.3" x1="58.666819895761336" x2="56.23545636021788" y1="174.27360380694188" y2="178.64263932499728" /><path d="M 58.180547188652646 175.14741091055294 a86.0,86.0 0 0,1 -31.652253787137756,-30.449443065178592" fill="none" id="id20" stroke="none" /><text fill="#e1ed5e" style="font-size:6.75px; font-family:Arial;" text-anchor="middle"><textPath startOffset="22.20632615414155" xlink:href="#id20">August</textPath></text><line stroke="#e1ed5e" stroke-width="0.3" x1="26.63291911575756" x2="22.317208475507996" y1="142.92168965132927" y2="145.44649492493687" /><path d="M 25.769776987707644 143.4266507060508 a86.0,86.0 0 0,1 -11.730757126820373,-40.83630448921669" fill="none" id="id21" stroke="none" /><text fill="#e1ed5e" style="font-size:6.75px; font-family:Arial;" text-anchor="middle"><textPath startOffset="21.46611528233685" xlink:href="#id21">September</textPath></text><line stroke="#e1ed5e" stroke-width="0.3" x1="15.007084014347285" x2="10.007500721073583" y1="101.09737516637583" y2="101.16192664675087" /><path d="M 14.007167355692545 101.11028546245083 a86.0,86.0 0 0,1 10.666146001902534,-42.60595125391555" fill="none" id="id22" stroke="none" /><text fill="#e1ed5e" style="font-size:6.75px; font-family:Arial;" text-anchor="middle"><textPath startOffset="22.20632615414155" xlink:href="#id22">October</textPath></text><line stroke="#e1ed5e" stroke-width="0.3" x1="26.266209847984243" x2="21.928928074336255" y1="57.711370442889674" y2="55.22380399835377" /><path d="M 25.398753493254645 57.213857153982495 a86.0,86.0 0 0,1 29.58750427330803,-30.492523968695096" fill="none" id="id23" stroke="none" /><text fill="#e1ed5e" style="font-size:6.75px; font-family:Arial;" text-anchor="middle"><textPath startOffset="21.46611528233685" xlink:href="#id23">November</textPath></text><line stroke="#e1ed5e" stroke-width="0.3" x1="56.762969772571076" x2="54.21961505331055" y1="26.818313649435495" y2="22.513508569990535" /><path d="M 56.25429882871897 25.957352633546506 a86.0,86.0 0 0,1 42.265352541879196,-11.944610805530505" fill="none" id="id24" stroke="none" /><text fill="#e1ed5e" style="font-size:6.75px; font-family:Arial;" text-anchor="middle"><textPath startOffset="22.20632615414155" xlink:href="#id24">December</textPath></text></svg>